<svg width="792" height="1121" viewBox="0 0 792 1121" fill="none" xmlns="http://www.w3.org/2000/svg">
<g clip-path="url(#clip0_133_85)">
<rect width="792" height="1120" transform="translate(0 0.679993)" fill="url(#paint0_linear_133_85)"/>
<path d="M0 663.541L282.249 0.679993H792V1120.68H0V663.541Z" fill="url(#paint1_linear_133_85)"/>
<path d="M464.261 1120.68L738.875 479.123H792V1120.68H464.261Z" fill="url(#paint2_linear_133_85)"/>
<path d="M333.073 847.107C293.608 938.298 254.131 1029.49 214.666 1120.68H162.792L294.992 808.983H370.462L503.792 1120.68H451.771C412.214 1029.49 372.643 938.298 333.086 847.107H333.073Z" fill="#061B3C"/>
<path d="M302.214 769.037L329.282 710.035H340.734L367.629 769.037H302.214Z" fill="#061B3C"/>
<path d="M69.2987 1120.68L0 990.075V1098.91L11.532 1120.68H69.2987Z" fill="#061B3C"/>
<path d="M489.48 279.003L618.035 0.679993H792V279.003H489.48Z" fill="url(#paint3_linear_133_85)" fill-opacity="0.4"/>
<path d="M236.001 1120.68L426.845 676.994H792V1063.5C783.78 1082.56 775.573 1101.62 767.353 1120.68H236.001Z" fill="url(#paint4_linear_133_85)" fill-opacity="0.4"/>
<path d="M792 1063.5C783.78 1082.56 775.574 1101.62 767.354 1120.68H464.261L654.178 676.994H792V1063.5Z" fill="url(#paint5_linear_133_85)"/>
<path d="M215.572 507.216C212.8 507.216 210.226 506.748 207.85 505.812C205.474 504.84 203.404 503.49 201.64 501.762C199.876 500.034 198.508 498.018 197.536 495.714C196.564 493.374 196.078 490.836 196.078 488.1C196.078 485.364 196.564 482.844 197.536 480.54C198.508 478.2 199.876 476.166 201.64 474.438C203.404 472.71 205.474 471.378 207.85 470.442C210.226 469.47 212.8 468.984 215.572 468.984C218.128 468.984 220.54 469.398 222.808 470.226C225.076 471.054 227.038 472.314 228.694 474.006L227.56 475.194C225.868 473.574 224.014 472.422 221.998 471.738C220.018 471.018 217.894 470.658 215.626 470.658C213.106 470.658 210.766 471.108 208.606 472.008C206.446 472.872 204.556 474.096 202.936 475.68C201.352 477.264 200.11 479.118 199.21 481.242C198.346 483.33 197.914 485.616 197.914 488.1C197.914 490.584 198.346 492.888 199.21 495.012C200.11 497.1 201.352 498.936 202.936 500.52C204.556 502.104 206.446 503.346 208.606 504.246C210.766 505.11 213.106 505.542 215.626 505.542C217.894 505.542 220.018 505.2 221.998 504.516C224.014 503.796 225.868 502.608 227.56 500.952L228.694 502.14C227.038 503.832 225.076 505.11 222.808 505.974C220.54 506.802 218.128 507.216 215.572 507.216Z" fill="white"/>
<path d="M253.277 507.216C250.505 507.216 247.931 506.748 245.555 505.812C243.179 504.84 241.109 503.49 239.345 501.762C237.581 500.034 236.213 498.018 235.241 495.714C234.269 493.374 233.783 490.836 233.783 488.1C233.783 485.364 234.269 482.844 235.241 480.54C236.213 478.2 237.581 476.166 239.345 474.438C241.109 472.71 243.179 471.378 245.555 470.442C247.931 469.47 250.505 468.984 253.277 468.984C256.085 468.984 258.677 469.47 261.053 470.442C263.429 471.378 265.481 472.71 267.209 474.438C268.973 476.166 270.341 478.2 271.313 480.54C272.321 482.844 272.825 485.364 272.825 488.1C272.825 490.836 272.321 493.374 271.313 495.714C270.341 498.018 268.973 500.034 267.209 501.762C265.481 503.49 263.429 504.84 261.053 505.812C258.677 506.748 256.085 507.216 253.277 507.216ZM253.277 505.542C255.797 505.542 258.137 505.11 260.297 504.246C262.457 503.382 264.329 502.158 265.913 500.574C267.533 498.99 268.775 497.154 269.639 495.066C270.539 492.942 270.989 490.62 270.989 488.1C270.989 485.58 270.539 483.276 269.639 481.188C268.775 479.064 267.533 477.21 265.913 475.626C264.329 474.042 262.457 472.818 260.297 471.954C258.137 471.09 255.797 470.658 253.277 470.658C250.793 470.658 248.471 471.09 246.311 471.954C244.151 472.818 242.261 474.042 240.641 475.626C239.057 477.21 237.815 479.064 236.915 481.188C236.051 483.276 235.619 485.58 235.619 488.1C235.619 490.62 236.051 492.942 236.915 495.066C237.815 497.154 239.057 498.99 240.641 500.574C242.261 502.158 244.151 503.382 246.311 504.246C248.471 505.11 250.793 505.542 253.277 505.542Z" fill="white"/>
<path d="M282.81 507V469.2H284.322L312.078 504.84H311.16V469.2H312.996V507H311.484L283.728 471.36H284.646V507H282.81Z" fill="white"/>
<path d="M334.026 507V470.874H320.148V469.2H349.686V470.874H335.808V507H334.026Z" fill="white"/>
<path d="M356.797 507V469.2H369.919C373.051 469.2 375.733 469.704 377.965 470.712C380.233 471.72 381.961 473.16 383.149 475.032C384.337 476.868 384.931 479.1 384.931 481.728C384.931 484.356 384.337 486.606 383.149 488.478C381.961 490.35 380.233 491.79 377.965 492.798C375.733 493.806 373.051 494.31 369.919 494.31H357.823L358.633 493.446V507H356.797ZM383.365 507L373.537 493.284H375.643L385.525 507H383.365ZM358.633 493.446L357.823 492.636H370.027C374.275 492.636 377.515 491.682 379.747 489.774C382.015 487.866 383.149 485.184 383.149 481.728C383.149 478.272 382.015 475.608 379.747 473.736C377.515 471.828 374.275 470.874 370.027 470.874H357.823L358.633 470.01V493.446Z" fill="white"/>
<path d="M389.023 507L406.519 469.2H408.301L425.797 507H423.799L407.005 470.442H407.815L391.021 507H389.023ZM395.071 495.93L395.773 494.364H418.885L419.587 495.93H395.071Z" fill="white"/>
<path d="M438.44 507V470.874H424.562V469.2H454.1V470.874H440.222V507H438.44Z" fill="white"/>
<path d="M476.343 507.216C473.571 507.216 470.997 506.748 468.621 505.812C466.245 504.84 464.175 503.49 462.411 501.762C460.647 500.034 459.279 498.018 458.307 495.714C457.335 493.374 456.849 490.836 456.849 488.1C456.849 485.364 457.335 482.844 458.307 480.54C459.279 478.2 460.647 476.166 462.411 474.438C464.175 472.71 466.245 471.378 468.621 470.442C470.997 469.47 473.571 468.984 476.343 468.984C479.151 468.984 481.743 469.47 484.119 470.442C486.495 471.378 488.547 472.71 490.275 474.438C492.039 476.166 493.407 478.2 494.379 480.54C495.387 482.844 495.891 485.364 495.891 488.1C495.891 490.836 495.387 493.374 494.379 495.714C493.407 498.018 492.039 500.034 490.275 501.762C488.547 503.49 486.495 504.84 484.119 505.812C481.743 506.748 479.151 507.216 476.343 507.216ZM476.343 505.542C478.863 505.542 481.203 505.11 483.363 504.246C485.523 503.382 487.395 502.158 488.979 500.574C490.599 498.99 491.841 497.154 492.705 495.066C493.605 492.942 494.055 490.62 494.055 488.1C494.055 485.58 493.605 483.276 492.705 481.188C491.841 479.064 490.599 477.21 488.979 475.626C487.395 474.042 485.523 472.818 483.363 471.954C481.203 471.09 478.863 470.658 476.343 470.658C473.859 470.658 471.538 471.09 469.378 471.954C467.218 472.818 465.327 474.042 463.707 475.626C462.123 477.21 460.881 479.064 459.981 481.188C459.117 483.276 458.685 485.58 458.685 488.1C458.685 490.62 459.117 492.942 459.981 495.066C460.881 497.154 462.123 498.99 463.707 500.574C465.327 502.158 467.218 503.382 469.378 504.246C471.538 505.11 473.859 505.542 476.343 505.542Z" fill="white"/>
<path d="M199.912 573V535.2H214.492C218.524 535.2 222.034 536.028 225.022 537.684C228.01 539.304 230.332 541.536 231.988 544.38C233.68 547.188 234.526 550.428 234.526 554.1C234.526 557.772 233.68 561.03 231.988 563.874C230.332 566.682 228.01 568.914 225.022 570.57C222.034 572.19 218.524 573 214.492 573H199.912ZM201.748 571.326H214.384C218.092 571.326 221.314 570.588 224.05 569.112C226.822 567.636 228.946 565.602 230.422 563.01C231.934 560.418 232.69 557.448 232.69 554.1C232.69 550.752 231.934 547.782 230.422 545.19C228.946 542.598 226.822 540.564 224.05 539.088C221.314 537.612 218.092 536.874 214.384 536.874H201.748V571.326Z" fill="white"/>
<path d="M246.037 552.966H266.881V554.64H246.037V552.966ZM246.361 571.326H270.067V573H244.525V535.2H269.311V536.874H246.361V571.326Z" fill="white"/>
<path d="M309.914 573.216C307.142 573.216 304.568 572.748 302.192 571.812C299.816 570.84 297.746 569.49 295.982 567.762C294.218 566.034 292.85 564.018 291.878 561.714C290.906 559.374 290.42 556.836 290.42 554.1C290.42 551.364 290.906 548.844 291.878 546.54C292.85 544.2 294.218 542.166 295.982 540.438C297.746 538.71 299.816 537.378 302.192 536.442C304.568 535.47 307.142 534.984 309.914 534.984C312.47 534.984 314.882 535.398 317.15 536.226C319.418 537.054 321.38 538.314 323.036 540.006L321.902 541.194C320.21 539.574 318.356 538.422 316.34 537.738C314.36 537.018 312.236 536.658 309.968 536.658C307.448 536.658 305.108 537.108 302.948 538.008C300.788 538.872 298.898 540.096 297.278 541.68C295.694 543.264 294.452 545.118 293.552 547.242C292.688 549.33 292.256 551.616 292.256 554.1C292.256 556.584 292.688 558.888 293.552 561.012C294.452 563.1 295.694 564.936 297.278 566.52C298.898 568.104 300.788 569.346 302.948 570.246C305.108 571.11 307.448 571.542 309.968 571.542C312.236 571.542 314.36 571.2 316.34 570.516C318.356 569.796 320.21 568.608 321.902 566.952L323.036 568.14C321.38 569.832 319.418 571.11 317.15 571.974C314.882 572.802 312.47 573.216 309.914 573.216Z" fill="white"/>
<path d="M332.75 573V535.2H345.872C349.004 535.2 351.686 535.704 353.918 536.712C356.186 537.72 357.914 539.16 359.102 541.032C360.29 542.868 360.884 545.1 360.884 547.728C360.884 550.356 360.29 552.606 359.102 554.478C357.914 556.35 356.186 557.79 353.918 558.798C351.686 559.806 349.004 560.31 345.872 560.31H333.776L334.586 559.446V573H332.75ZM359.318 573L349.49 559.284H351.596L361.478 573H359.318ZM334.586 559.446L333.776 558.636H345.98C350.228 558.636 353.468 557.682 355.7 555.774C357.968 553.866 359.102 551.184 359.102 547.728C359.102 544.272 357.968 541.608 355.7 539.736C353.468 537.828 350.228 536.874 345.98 536.874H333.776L334.586 536.01V559.446Z" fill="white"/>
<path d="M373.022 552.966H393.866V554.64H373.022V552.966ZM373.346 571.326H397.052V573H371.51V535.2H396.296V536.874H373.346V571.326ZM381.23 532.122L388.736 526.02H391.652L383.39 532.122H381.23Z" fill="white"/>
<path d="M407.58 573V535.2H422.16C426.192 535.2 429.702 536.028 432.69 537.684C435.678 539.304 438 541.536 439.656 544.38C441.348 547.188 442.194 550.428 442.194 554.1C442.194 557.772 441.348 561.03 439.656 563.874C438 566.682 435.678 568.914 432.69 570.57C429.702 572.19 426.192 573 422.16 573H407.58ZM409.416 571.326H422.052C425.76 571.326 428.982 570.588 431.718 569.112C434.49 567.636 436.614 565.602 438.09 563.01C439.602 560.418 440.358 557.448 440.358 554.1C440.358 550.752 439.602 547.782 438.09 545.19C436.614 542.598 434.49 540.564 431.718 539.088C428.982 537.612 425.76 536.874 422.052 536.874H409.416V571.326Z" fill="white"/>
<path d="M452.193 573V535.2H454.029V573H452.193Z" fill="white"/>
<path d="M475.037 573V536.874H461.159V535.2H490.697V536.874H476.819V573H475.037Z" fill="white"/>
<path d="M512.941 573.216C510.169 573.216 507.595 572.748 505.219 571.812C502.843 570.84 500.773 569.49 499.009 567.762C497.245 566.034 495.877 564.018 494.905 561.714C493.933 559.374 493.447 556.836 493.447 554.1C493.447 551.364 493.933 548.844 494.905 546.54C495.877 544.2 497.245 542.166 499.009 540.438C500.773 538.71 502.843 537.378 505.219 536.442C507.595 535.47 510.169 534.984 512.941 534.984C515.749 534.984 518.341 535.47 520.717 536.442C523.093 537.378 525.145 538.71 526.873 540.438C528.637 542.166 530.005 544.2 530.977 546.54C531.985 548.844 532.489 551.364 532.489 554.1C532.489 556.836 531.985 559.374 530.977 561.714C530.005 564.018 528.637 566.034 526.873 567.762C525.145 569.49 523.093 570.84 520.717 571.812C518.341 572.748 515.749 573.216 512.941 573.216ZM512.941 571.542C515.461 571.542 517.801 571.11 519.961 570.246C522.121 569.382 523.993 568.158 525.577 566.574C527.197 564.99 528.439 563.154 529.303 561.066C530.203 558.942 530.653 556.62 530.653 554.1C530.653 551.58 530.203 549.276 529.303 547.188C528.439 545.064 527.197 543.21 525.577 541.626C523.993 540.042 522.121 538.818 519.961 537.954C517.801 537.09 515.461 536.658 512.941 536.658C510.457 536.658 508.135 537.09 505.975 537.954C503.815 538.818 501.925 540.042 500.305 541.626C498.721 543.21 497.479 545.064 496.579 547.188C495.715 549.276 495.283 551.58 495.283 554.1C495.283 556.62 495.715 558.942 496.579 561.066C497.479 563.154 498.721 564.99 500.305 566.574C501.925 568.158 503.815 569.382 505.975 570.246C508.135 571.11 510.457 571.542 512.941 571.542Z" fill="white"/>
<path d="M201.62 639V632.304L215.768 619.074C216.776 618.138 217.514 617.31 217.982 616.59C218.486 615.87 218.81 615.222 218.954 614.646C219.134 614.034 219.224 613.476 219.224 612.972C219.224 611.748 218.81 610.794 217.982 610.11C217.19 609.426 215.984 609.084 214.364 609.084C212.996 609.084 211.718 609.39 210.53 610.002C209.342 610.614 208.37 611.532 207.614 612.756L199.676 608.328C201.08 605.952 203.114 604.044 205.778 602.604C208.442 601.164 211.628 600.444 215.336 600.444C218.252 600.444 220.808 600.912 223.004 601.848C225.2 602.784 226.91 604.116 228.134 605.844C229.394 607.572 230.024 609.606 230.024 611.946C230.024 613.17 229.862 614.394 229.538 615.618C229.214 616.806 228.584 618.084 227.648 619.452C226.748 620.784 225.398 622.278 223.598 623.934L212.366 634.302L210.584 630.522H231.05V639H201.62Z" fill="white"/>
<path d="M250.848 639.756C247.608 639.756 244.728 638.982 242.208 637.434C239.724 635.886 237.762 633.654 236.322 630.738C234.882 627.822 234.162 624.276 234.162 620.1C234.162 615.924 234.882 612.378 236.322 609.462C237.762 606.546 239.724 604.314 242.208 602.766C244.728 601.218 247.608 600.444 250.848 600.444C254.052 600.444 256.896 601.218 259.38 602.766C261.9 604.314 263.88 606.546 265.32 609.462C266.76 612.378 267.48 615.924 267.48 620.1C267.48 624.276 266.76 627.822 265.32 630.738C263.88 633.654 261.9 635.886 259.38 637.434C256.896 638.982 254.052 639.756 250.848 639.756ZM250.848 631.008C252 631.008 253.008 630.648 253.872 629.928C254.772 629.208 255.474 628.056 255.978 626.472C256.482 624.852 256.734 622.728 256.734 620.1C256.734 617.436 256.482 615.312 255.978 613.728C255.474 612.144 254.772 610.992 253.872 610.272C253.008 609.552 252 609.192 250.848 609.192C249.696 609.192 248.67 609.552 247.77 610.272C246.906 610.992 246.204 612.144 245.664 613.728C245.16 615.312 244.908 617.436 244.908 620.1C244.908 622.728 245.16 624.852 245.664 626.472C246.204 628.056 246.906 629.208 247.77 629.928C248.67 630.648 249.696 631.008 250.848 631.008Z" fill="white"/>
<path d="M270.544 639V632.304L284.692 619.074C285.7 618.138 286.438 617.31 286.906 616.59C287.41 615.87 287.734 615.222 287.878 614.646C288.058 614.034 288.148 613.476 288.148 612.972C288.148 611.748 287.734 610.794 286.906 610.11C286.114 609.426 284.908 609.084 283.288 609.084C281.92 609.084 280.642 609.39 279.454 610.002C278.266 610.614 277.294 611.532 276.538 612.756L268.6 608.328C270.004 605.952 272.038 604.044 274.702 602.604C277.366 601.164 280.552 600.444 284.26 600.444C287.176 600.444 289.732 600.912 291.928 601.848C294.124 602.784 295.834 604.116 297.058 605.844C298.318 607.572 298.948 609.606 298.948 611.946C298.948 613.17 298.786 614.394 298.462 615.618C298.138 616.806 297.508 618.084 296.572 619.452C295.672 620.784 294.322 622.278 292.522 623.934L281.29 634.302L279.508 630.522H299.974V639H270.544Z" fill="white"/>
<path d="M316.316 639.756C313.724 639.756 311.114 639.432 308.486 638.784C305.858 638.136 303.59 637.218 301.682 636.03L305.516 627.984C307.064 628.992 308.738 629.766 310.538 630.306C312.374 630.846 314.192 631.116 315.992 631.116C317.792 631.116 319.25 630.774 320.366 630.09C321.482 629.37 322.04 628.38 322.04 627.12C322.04 626.364 321.824 625.698 321.392 625.122C320.96 624.51 320.222 624.06 319.178 623.772C318.134 623.448 316.64 623.286 314.696 623.286H304.436L306.326 601.2H330.41V609.462H310.106L315.56 604.764L314.318 619.668L308.864 614.97H317.234C320.978 614.97 323.984 615.51 326.252 616.59C328.52 617.634 330.176 619.056 331.22 620.856C332.264 622.62 332.786 624.618 332.786 626.85C332.786 629.082 332.192 631.188 331.004 633.168C329.852 635.112 328.07 636.696 325.658 637.92C323.246 639.144 320.132 639.756 316.316 639.756Z" fill="white"/>
<path d="M320.678 358.479V340.659H328.103C330.018 340.659 331.517 341.049 332.605 341.829C333.687 342.61 334.234 343.736 334.234 345.216C334.234 346.185 334.007 346.998 333.547 347.659C333.087 348.32 332.459 348.818 331.653 349.149C330.846 349.479 329.943 349.647 328.941 349.647L329.401 349.138C330.624 349.138 331.663 349.317 332.529 349.674C333.395 350.032 334.05 350.547 334.499 351.229C334.948 351.907 335.176 352.757 335.176 353.776C335.176 355.271 334.634 356.431 333.547 357.254C332.459 358.078 330.819 358.489 328.611 358.489H320.678V358.479ZM321.977 357.357H328.617C330.327 357.357 331.636 357.064 332.535 356.479C333.433 355.894 333.882 354.957 333.882 353.667C333.882 352.378 333.433 351.462 332.535 350.877C331.636 350.292 330.332 350 328.617 350H321.825V348.878H328.059C329.602 348.878 330.798 348.58 331.647 347.99C332.497 347.394 332.919 346.505 332.919 345.313C332.919 344.121 332.497 343.26 331.647 342.664C330.798 342.068 329.602 341.77 328.059 341.77H321.982V357.352L321.977 357.357Z" fill="white"/>
<path d="M341.101 358.479L349.294 340.659H350.593L358.781 358.484H357.385L349.652 341.472H350.209L342.503 358.484H341.107L341.101 358.479ZM344.105 353.462L344.538 352.367H355.193L355.626 353.462H344.105Z" fill="white"/>
<path d="M366.281 358.479V340.659H367.375L380.065 356.88H379.48V340.659H380.779V358.484H379.713L366.996 342.263H367.58V358.484H366.281V358.479Z" fill="white"/>
<path d="M398.789 358.609C397.469 358.609 396.24 358.381 395.114 357.931C393.989 357.482 393.009 356.848 392.176 356.035C391.343 355.222 390.699 354.263 390.244 353.169C389.784 352.075 389.557 350.872 389.557 349.566C389.557 348.26 389.784 347.058 390.244 345.963C390.704 344.869 391.348 343.915 392.192 343.097C393.031 342.285 394.011 341.651 395.131 341.201C396.251 340.751 397.469 340.524 398.794 340.524C400.05 340.524 401.224 340.73 402.317 341.136C403.41 341.542 404.347 342.165 405.126 342.994L404.314 343.834C403.551 343.086 402.707 342.55 401.782 342.219C400.856 341.889 399.877 341.721 398.843 341.721C397.707 341.721 396.651 341.916 395.677 342.306C394.703 342.696 393.854 343.249 393.134 343.964C392.414 344.679 391.851 345.508 391.456 346.462C391.056 347.415 390.861 348.45 390.861 349.566C390.861 350.682 391.061 351.722 391.456 352.671C391.857 353.619 392.414 354.453 393.134 355.168C393.854 355.883 394.703 356.431 395.677 356.826C396.651 357.216 397.707 357.411 398.843 357.411C399.877 357.411 400.856 357.243 401.782 356.913C402.707 356.582 403.551 356.035 404.314 355.271L405.126 356.111C404.347 356.945 403.41 357.568 402.317 357.985C401.224 358.403 400.05 358.609 398.794 358.609H398.789Z" fill="white"/>
<path d="M420.917 358.609C419.597 358.609 418.368 358.381 417.243 357.931C416.117 357.482 415.132 356.848 414.293 356.024C413.454 355.201 412.805 354.242 412.345 353.147C411.885 352.053 411.658 350.861 411.658 349.572C411.658 348.282 411.885 347.09 412.345 345.996C412.805 344.901 413.449 343.942 414.293 343.119C415.132 342.295 416.117 341.661 417.243 341.206C418.368 340.757 419.597 340.529 420.917 340.529C422.237 340.529 423.466 340.757 424.592 341.206C425.717 341.656 426.697 342.29 427.53 343.103C428.363 343.915 429.007 344.874 429.478 345.969C429.944 347.063 430.176 348.266 430.176 349.572C430.176 350.877 429.944 352.08 429.478 353.174C429.013 354.269 428.363 355.222 427.53 356.04C426.697 356.853 425.723 357.487 424.592 357.937C423.466 358.386 422.237 358.614 420.917 358.614V358.609ZM420.917 357.411C422.053 357.411 423.103 357.216 424.072 356.826C425.041 356.436 425.879 355.883 426.588 355.168C427.303 354.453 427.855 353.624 428.255 352.671C428.656 351.722 428.85 350.682 428.85 349.566C428.85 348.45 428.65 347.388 428.255 346.445C427.855 345.503 427.303 344.674 426.588 343.964C425.874 343.249 425.035 342.702 424.072 342.306C423.103 341.916 422.053 341.721 420.917 341.721C419.781 341.721 418.731 341.916 417.762 342.306C416.793 342.696 415.949 343.249 415.229 343.964C414.51 344.679 413.947 345.503 413.552 346.445C413.151 347.388 412.957 348.428 412.957 349.566C412.957 350.704 413.157 351.722 413.552 352.671C413.952 353.619 414.51 354.453 415.229 355.168C415.949 355.883 416.793 356.431 417.762 356.826C418.731 357.222 419.781 357.411 420.917 357.411Z" fill="white"/>
<path d="M379.994 369.406C373.679 382.951 367.369 396.496 361.054 410.04C354.923 396.317 348.786 382.588 342.654 368.865H341.572C334.537 384.213 327.502 399.568 320.467 414.916H325.878L342.113 379.158C347.703 391.078 353.299 402.997 358.889 414.916H364.842C370.075 402.818 375.303 390.715 380.536 378.617C385.947 390.715 391.359 402.818 396.77 414.916C398.286 414.895 399.801 414.868 401.316 414.846C394.568 399.698 387.82 384.555 381.077 369.406H379.994Z" fill="white"/>
<path d="M407.356 414.846H412.47C414.856 409.845 417.237 404.812 419.613 399.741C420.365 398.137 421.101 396.544 421.848 394.946C421.799 395.065 421.756 395.19 421.707 395.309L429.5 378.828C432.79 385.801 436.075 392.774 439.365 399.741L446.579 414.846H451.53L430.144 368.935C422.546 384.24 414.953 399.541 407.356 414.846Z" fill="white"/>
<path d="M473.604 388.911C470.26 386.435 468.285 384.907 467.679 384.322C466.575 383.216 465.817 382.198 465.4 381.266C464.984 380.329 464.778 379.364 464.778 378.362C464.778 376.72 465.363 375.333 466.537 374.212C467.711 373.09 469.221 372.527 471.072 372.527C472.506 372.527 473.832 372.89 475.044 373.621C476.261 374.347 477.728 375.859 479.454 378.145L483.194 375.306C481.094 372.435 479.103 370.463 477.225 369.39C475.342 368.317 473.323 367.781 471.164 367.781C469.129 367.781 467.24 368.252 465.503 369.2C463.766 370.149 462.424 371.443 461.466 373.085C460.508 374.727 460.032 376.547 460.032 378.546C460.032 381.066 460.844 383.406 462.462 385.568C463.398 386.857 465.774 388.949 469.6 391.842C473.404 394.713 476.023 397.167 477.457 399.205C478.496 400.684 479.016 402.19 479.016 403.729C479.016 405.083 478.664 406.362 477.955 407.57C477.246 408.778 476.218 409.737 474.871 410.458C473.518 411.173 472.073 411.536 470.536 411.536C466.943 411.536 463.771 409.006 461.028 403.951L457.131 406.291C459.042 409.786 461.131 412.278 463.398 413.768C465.666 415.252 468.187 416 470.974 416C474.589 416 477.663 414.77 480.185 412.316C482.712 409.862 483.973 406.968 483.973 403.642C483.973 401.334 483.237 399.031 481.76 396.745C480.282 394.459 477.56 391.847 473.594 388.911H473.604Z" fill="white"/>
<path d="M495.624 373.432H505.852V414.846H510.528V373.432H520.75V368.935H495.624V373.432Z" fill="white"/>
<path d="M532.261 414.846H558.355V410.349H536.844V392.313H558.355V387.816H536.844V373.432H558.539V368.935H532.261V414.846Z" fill="white"/>
<path d="M585.505 393.527C589.348 393.505 592.362 393.012 594.548 392.042C596.729 391.072 598.407 389.642 599.581 387.746C600.755 385.85 601.34 383.65 601.34 381.152C601.34 378.151 600.485 375.626 598.786 373.573C597.081 371.519 594.868 370.181 592.146 369.558C590.338 369.141 586.885 368.935 581.793 368.935H572.658V414.846H577.242V393.532H579.834L596.329 414.846H602L585.511 393.532L585.505 393.527ZM577.242 389.03V373.426H585.327C588.471 373.426 590.717 373.697 592.07 374.239C593.423 374.781 594.516 375.68 595.349 376.937C596.183 378.194 596.599 379.597 596.599 381.136C596.599 382.675 596.188 384.148 595.365 385.427C594.543 386.706 593.396 387.637 591.929 388.223C590.462 388.808 588.2 389.095 585.137 389.095L577.237 389.03H577.242Z" fill="white"/>
<rect x="196" y="322" width="97.4088" height="92.6455" rx="10" fill="url(#paint6_linear_133_85)"/>
<path d="M270.139 350.444H262.563C256.789 364.167 251.02 377.896 245.246 391.62C238.573 379.158 231.895 366.697 225.223 354.236H223.058C215.482 368.502 207.906 382.772 200.329 397.037H206.845C212.608 386.202 218.372 375.366 224.14 364.53C230.272 375.366 236.408 386.202 242.54 397.037H248.493C254.445 382.588 260.398 368.144 266.351 353.695C272.304 368.144 278.256 382.588 284.209 397.037C286.195 397.016 288.176 396.989 290.162 396.967C283.489 381.461 276.811 365.95 270.139 350.444Z" fill="#A4A4A3"/>
<path d="M267.433 340.15H265.81C264.906 342.317 264.008 344.484 263.104 346.651H269.598C268.878 344.484 268.153 342.317 267.433 340.15Z" fill="#A4A4A3"/>
</g>
<defs>
<linearGradient id="paint0_linear_133_85" x1="0" y1="1120.32" x2="9.25257e-06" y2="0.320034" gradientUnits="userSpaceOnUse">
<stop offset="0.51897" stop-color="#0A1B3A"/>
<stop offset="1" stop-color="#0B2A5D"/>
</linearGradient>
<linearGradient id="paint1_linear_133_85" x1="0" y1="560.68" x2="792" y2="560.68" gradientUnits="userSpaceOnUse">
<stop stop-color="#092350"/>
<stop offset="1" stop-color="#1E3F77"/>
</linearGradient>
<linearGradient id="paint2_linear_133_85" x1="539" y1="941.5" x2="792" y2="799.902" gradientUnits="userSpaceOnUse">
<stop stop-color="#0E2753"/>
<stop offset="1" stop-color="#072D71"/>
</linearGradient>
<linearGradient id="paint3_linear_133_85" x1="489.48" y1="139.842" x2="792" y2="139.842" gradientUnits="userSpaceOnUse">
<stop stop-color="#4481DF"/>
<stop offset="1" stop-color="#103D82"/>
</linearGradient>
<linearGradient id="paint4_linear_133_85" x1="344" y1="899" x2="792" y2="898.837" gradientUnits="userSpaceOnUse">
<stop offset="0.322115" stop-color="#4481DF"/>
<stop offset="1" stop-color="#103D82"/>
</linearGradient>
<linearGradient id="paint5_linear_133_85" x1="562" y1="899" x2="792" y2="964.5" gradientUnits="userSpaceOnUse">
<stop stop-color="#0B2048"/>
<stop offset="1" stop-color="#123168"/>
</linearGradient>
<linearGradient id="paint6_linear_133_85" x1="196" y1="368.052" x2="293.409" y2="368.052" gradientUnits="userSpaceOnUse">
<stop stop-color="#041533"/>
<stop offset="1" stop-color="#043C73"/>
</linearGradient>
<clipPath id="clip0_133_85">
<rect width="792" height="1120" fill="white" transform="translate(0 0.679993)"/>
</clipPath>
</defs>
</svg>
