<svg width="293" height="78" viewBox="0 0 293 78" fill="none" xmlns="http://www.w3.org/2000/svg">
<path d="M2.27795 61.3559C2.23595 61.3559 2.19395 61.3979 2.15195 61.3979C1.64795 61.3979 0.975952 60.6839 0.975952 60.3059C0.975952 60.2219 1.01795 60.1379 1.10195 60.0959C1.14395 60.0959 5.00795 58.9619 10.258 57.8699C13.912 51.3599 18.406 43.8419 21.556 40.2719C19.162 41.3219 16.6 42.5399 16.558 42.5399C16.516 42.5399 16.474 42.5819 16.39 42.5819C15.928 42.5819 15.214 41.8679 15.214 41.4899C15.214 41.4059 15.256 41.3639 15.34 41.3219C15.34 41.3219 23.488 37.4999 24.664 37.4999C25.126 37.4999 25.966 38.0459 25.966 38.5499C25.966 38.6759 25.924 38.8019 25.84 38.8859C25.63 39.0959 25.252 39.3899 24.622 39.8099C21.892 41.6159 16.936 49.6379 12.778 56.9879C17.986 49.8899 24.328 41.9519 27.898 40.0199C28.444 39.7259 28.948 39.5999 29.41 39.5999C30.796 39.5999 31.804 40.6919 32.14 42.2459C32.224 42.7079 32.266 43.1699 32.266 43.7159C32.266 46.8659 30.754 51.6119 29.158 56.1059C30.922 56.2739 31.888 57.0719 31.888 57.4079C31.888 57.5339 31.804 57.5759 31.636 57.5759C31.594 57.5759 31.552 57.5759 31.468 57.5759C30.628 57.4499 29.704 57.3239 28.738 57.2819C28.15 59.0039 25.378 65.9339 25.378 67.7819C25.378 67.8659 25.378 67.9079 25.378 67.9499C25.378 68.1179 25.168 68.2019 24.958 68.2019C24.538 68.2019 23.95 67.8659 23.95 66.7319C23.95 66.3539 24.034 65.8919 24.16 65.3039C24.664 63.3719 25.966 59.9279 26.974 57.2399C26.932 57.2399 26.89 57.2399 26.806 57.2399C22.648 57.2399 17.902 57.8699 13.702 58.6679C9.16595 64.9259 5.51195 70.3859 5.51195 70.4279C5.42795 70.5119 5.38595 70.5119 5.25995 70.5119C4.83995 70.5119 4.04195 69.8819 4.04195 69.5039C4.04195 69.4199 4.08395 69.3779 4.08395 69.3359C4.16795 69.1679 6.35195 64.8839 9.29195 59.5919C5.17595 60.5159 2.31995 61.3559 2.27795 61.3559ZM14.962 56.9879C18.574 56.3999 22.438 55.9799 25.924 55.9799C26.428 55.9799 26.932 55.9799 27.394 55.9799C28.024 54.2579 30.838 46.4879 30.838 42.6659C30.838 41.7419 30.67 41.0279 30.292 40.6919C30.25 40.6499 30.166 40.6079 30.04 40.6079C27.772 40.6079 15.928 55.6859 14.962 56.9879Z" fill="#003D7E"/>
<path d="M34.8509 54.1319C34.8929 54.0479 34.9769 54.0059 35.1029 54.0059C35.5229 54.0059 36.3209 54.6359 36.3209 55.0139C36.3209 55.0979 36.3209 55.1399 36.2789 55.1399C36.2789 55.1819 35.1869 57.2819 34.1369 59.3399C36.1529 57.4079 38.5469 55.1399 39.8069 54.8039C39.9749 54.7619 40.1429 54.7619 40.2689 54.7619C40.8989 54.7619 41.4869 55.0559 41.9069 55.5599C42.2849 56.0219 42.4109 56.8199 42.4109 57.6599C42.4109 58.8779 42.2009 60.0959 42.2009 60.5579C42.2009 60.6419 42.2009 60.6839 42.2009 60.7259C42.2429 60.7259 42.2429 60.7259 42.2849 60.7259C43.0409 60.7259 47.7029 57.2399 48.0809 56.9039C48.1229 56.8619 48.2069 56.8619 48.2489 56.8619C48.6269 56.8619 49.2149 57.6599 49.2149 58.1219C49.2149 58.2059 49.1729 58.2899 49.1309 58.3319C47.8709 59.3819 45.1409 61.8179 43.0409 61.8179C42.5789 61.8179 42.1589 61.6919 41.7809 61.3979C40.9829 60.8099 40.8149 59.9279 40.8149 58.9619C40.8149 58.0799 40.9829 57.1139 40.9829 56.2739C40.9829 56.2319 40.9829 56.1479 40.9829 56.0639C38.7569 56.6519 33.0029 63.4559 32.0369 63.4559C31.2389 63.4559 30.8189 63.0359 30.8189 62.3639C30.8189 61.8179 34.3049 55.1819 34.8509 54.1319Z" fill="#003D7E"/>
<path d="M55.7115 55.2659C55.6695 55.2239 55.6275 55.1819 55.5435 55.1819C54.7455 56.6099 51.9735 62.3219 49.5375 62.3219C49.2015 62.3219 48.9075 62.1959 48.6135 61.9859C47.8155 61.3979 47.4375 60.3479 47.4375 59.2139C47.4375 58.5419 47.5635 57.8279 47.8155 57.1559C48.6555 54.9299 50.3775 53.2079 52.5615 53.2079C53.1495 53.2079 53.7795 53.3339 54.4515 53.5859C57.6435 47.8319 60.7515 40.8599 60.7515 40.8179C60.7935 40.7339 60.8775 40.6919 61.0035 40.6919C61.4235 40.6919 62.3895 41.3219 62.2215 41.7419C60.0375 47.1599 53.3595 64.9679 53.3595 69.5039C53.3595 69.7139 53.4015 69.8819 53.4015 70.0499C53.4015 70.2179 53.3175 70.2599 53.1915 70.2599C52.7715 70.2599 52.0575 69.7979 51.9315 69.2939C51.9315 69.1259 51.8895 68.8739 51.8895 68.6639C51.8895 66.1439 53.6535 60.9359 55.7115 55.2659ZM53.9055 54.5099C53.7795 54.5099 53.6955 54.5099 53.5695 54.5099C50.9235 54.5099 48.7395 58.2899 48.7395 60.3479C48.7395 60.6419 48.7815 60.8939 48.8655 61.1039C50.1675 60.7259 52.3935 57.1979 53.9055 54.5099Z" fill="#003D7E"/>
<path d="M70.9053 56.9879C71.2833 56.6099 72.4173 57.8279 72.0393 58.1639C70.2753 59.8859 64.3953 67.2779 62.3793 66.6059C61.9593 66.4379 61.5393 66.1019 61.2873 65.7239C60.2793 64.2119 63.3873 59.4659 64.2693 57.7019C62.9253 58.1219 61.4973 58.2899 60.3633 57.5339C58.3473 56.1479 59.6073 53.1239 61.1613 52.6619C62.0853 52.4099 63.1773 53.3339 63.3453 54.2159C63.4713 54.7199 63.3453 55.5179 62.8413 56.5259C63.3453 56.3999 64.3533 55.9379 64.7733 55.9379C65.4453 55.9799 65.8653 56.3579 66.1173 56.9879C66.5373 58.1219 62.7993 63.4139 62.4633 65.3459C64.4793 64.3799 68.9733 58.9199 70.9053 56.9879ZM60.7413 56.7359C61.4553 55.6019 61.7913 54.7619 61.8753 54.1739C61.6233 54.3839 61.3293 54.8039 61.0773 55.3499C61.0353 55.3919 60.6153 56.6099 60.7413 56.7359Z" fill="#003D7E"/>
<path d="M71.2892 60.1799C71.0792 60.2639 70.9112 60.6839 70.9112 61.1039C70.9112 61.4819 71.0372 61.8599 71.3732 61.9859C71.6252 62.0699 71.8772 62.0699 72.1712 62.0699C75.0272 62.0699 79.7732 58.5419 81.5792 56.9459C81.6212 56.9039 81.6632 56.9039 81.7472 56.9039C82.1672 56.9039 82.8392 57.6179 82.8392 58.0799C82.8392 58.1639 82.7972 58.2059 82.7552 58.2479C82.7132 58.2899 76.9592 63.3299 73.0532 63.3299C72.8432 63.3299 72.6752 63.3299 72.5072 63.3299C70.4072 63.0359 69.6092 61.9019 69.6092 60.5159C69.6092 57.7859 72.6332 54.1319 74.8592 54.0059C74.9012 54.0059 74.9432 54.0059 74.9432 54.0059C75.9932 54.0059 77.0432 54.9299 77.0432 55.9799C77.0432 56.2319 76.9592 56.4839 76.8332 56.7359C75.7832 58.4999 71.2892 60.1799 71.2892 60.1799ZM72.4232 57.9119C73.5992 57.3239 75.2792 56.2739 75.5312 55.3499C74.5652 55.6019 73.3052 56.7779 72.4232 57.9119Z" fill="#003D7E"/>
<path d="M92.5862 50.2259C92.5442 50.3099 92.4602 50.3519 92.3342 50.3519C91.9142 50.3519 91.1582 49.7219 91.1582 49.3019C91.1582 49.2599 91.1582 49.2179 91.2002 49.1339C93.5942 45.7739 99.6002 41.7839 104.598 41.7839C106.152 41.7839 107.58 42.1619 108.84 43.0439C110.394 44.1359 110.94 45.8579 110.94 47.7899C110.94 51.0659 109.26 54.9719 108.21 57.3239C116.988 49.3019 127.95 40.8179 133.662 39.9779H133.704C134.25 39.9779 134.922 40.6499 134.922 41.0279C134.922 41.1539 134.88 41.2379 134.712 41.2379C128.874 42.1199 117.156 51.3599 108.21 59.6759C108.336 59.6339 108.462 59.6339 108.588 59.6339C112.83 59.6339 113.964 64.2119 116.274 66.7739C116.904 67.4879 117.66 67.9499 118.794 67.9499C120.726 67.9499 123.75 66.3959 128.874 61.7759C128.958 61.7339 129 61.7339 129.084 61.7339C129.546 61.7339 130.302 62.4059 130.302 62.7839C130.302 62.8259 130.302 62.9099 130.218 62.9519C125.22 67.4459 121.902 69.0839 119.466 69.0839C117.702 69.0839 116.442 68.2439 115.35 67.0259C112.998 64.4219 112.284 61.0199 109.176 61.0199C108.294 61.0199 107.202 61.2719 105.816 61.9439C103.464 66.1019 100.776 69.8399 98.7602 71.7299C98.0042 72.4439 97.1642 73.0739 96.4502 73.0739C95.9882 73.0739 95.5682 72.8219 95.1902 72.2759C95.1062 72.1499 95.0642 72.0239 95.0642 71.8559C95.0642 71.3099 95.5262 70.4699 96.3662 69.4199C98.7182 66.3959 101.7 63.4979 104.43 60.8099C105.816 58.3319 109.554 50.8979 109.554 46.5719C109.554 45.3119 109.218 44.3459 108.462 43.7999C107.664 43.2119 106.656 42.9599 105.564 42.9599C100.986 42.9599 94.6862 47.3279 92.5862 50.2259Z" fill="#003D7E"/>
<path d="M140.632 56.9879C141.01 56.6099 142.144 57.8279 141.766 58.1639C140.002 59.8859 134.122 67.2779 132.106 66.6059C131.686 66.4379 131.266 66.1019 131.014 65.7239C130.006 64.2119 133.114 59.4659 133.996 57.7019C132.652 58.1219 131.224 58.2899 130.09 57.5339C128.074 56.1479 129.334 53.1239 130.888 52.6619C131.812 52.4099 132.904 53.3339 133.072 54.2159C133.198 54.7199 133.072 55.5179 132.568 56.5259C133.072 56.3999 134.08 55.9379 134.5 55.9379C135.172 55.9799 135.592 56.3579 135.844 56.9879C136.264 58.1219 132.526 63.4139 132.19 65.3459C134.206 64.3799 138.7 58.9199 140.632 56.9879ZM130.468 56.7359C131.182 55.6019 131.518 54.7619 131.602 54.1739C131.35 54.3839 131.056 54.8039 130.804 55.3499C130.762 55.3919 130.342 56.6099 130.468 56.7359Z" fill="#003D7E"/>
<path d="M142.612 53.7119C142.654 53.6699 142.738 53.6279 142.822 53.6279C143.242 53.6279 144.04 54.2579 144.04 54.6779C144.04 54.7199 143.998 54.7619 143.998 54.8039C143.158 56.0219 141.394 58.9199 141.394 60.6419C141.394 60.7679 141.394 60.8939 141.436 61.0199C143.242 60.3899 146.476 56.1059 147.568 54.5099C147.694 54.3419 147.82 54.2999 147.988 54.2999C148.45 54.2999 149.08 54.9719 149.08 55.3499C149.08 55.4339 149.038 55.4759 148.996 55.5179C148.828 56.0219 148.072 58.8779 148.072 60.2639C148.072 60.6419 148.114 60.8939 148.24 60.9779C148.366 61.0619 148.534 61.1039 148.702 61.1039C150.466 61.1039 154.54 57.9119 155.38 56.9039C155.422 56.8619 155.506 56.8199 155.59 56.8199C155.968 56.8199 156.682 57.4499 156.682 57.8279C156.682 57.9119 156.64 57.9539 156.64 57.9959C155.38 59.5079 152.02 62.2379 149.5 62.2379C148.954 62.2379 148.45 62.1119 148.03 61.8179C147.106 61.2299 146.644 60.3059 146.644 58.9619C146.644 58.8779 146.644 58.7519 146.644 58.6679C145.51 59.9699 143.704 61.9439 142.528 62.2799C142.402 62.3219 142.276 62.3639 142.15 62.3639C141.562 62.3639 141.016 61.9859 140.596 61.5659C140.176 61.0619 140.008 60.4739 140.008 59.8019C140.008 57.7019 141.688 55.0139 142.612 53.7119Z" fill="#003D7E"/>
<path d="M157.842 52.2419C157.926 52.1999 157.968 52.1579 158.052 52.1579C158.514 52.1579 159.228 52.8719 159.228 53.2499C159.228 53.3339 159.228 53.3759 159.144 53.4179C157.422 54.4259 156.624 55.2659 156.624 56.3999C156.624 57.0719 156.876 57.8699 157.38 58.8359C159.102 58.0799 161.202 57.3659 163.512 56.8619C163.554 56.8199 163.596 56.8199 163.638 56.8199C164.142 56.8199 164.856 57.5339 164.856 57.9119C164.856 57.9959 164.772 58.0799 164.646 58.1219C162.084 58.7099 159.816 59.4659 158.01 60.3059C158.094 60.5159 158.094 60.7679 158.094 60.9779C158.094 61.9019 157.506 62.8259 155.532 63.7079C155.028 63.9179 154.608 64.0859 154.188 64.0859C153.684 64.0859 153.264 63.8339 152.802 63.0779C152.718 62.8679 152.676 62.6999 152.676 62.5319C152.634 61.1459 155.448 59.7599 156.414 59.2559C155.742 57.9539 155.07 56.7779 155.07 55.6859C155.07 54.5519 155.742 53.4599 157.842 52.2419ZM154.902 62.1959C155.49 61.9019 155.868 61.6079 156.162 61.3139C155.7 61.5659 155.28 61.8599 154.902 62.1959Z" fill="#003D7E"/>
<path d="M169.49 56.9039C169.448 57.0719 169.322 57.1139 169.196 57.1139C168.734 57.1139 167.936 56.2739 168.062 55.9379L168.314 55.0559C166.634 55.3919 163.484 58.9619 163.484 61.1459C163.484 61.4819 163.568 61.8179 163.694 62.0699C163.862 62.1119 164.03 62.1119 164.24 62.1119C166.928 62.1119 171.968 58.2059 174.194 56.8619C174.278 56.8199 174.32 56.8199 174.404 56.8199C174.866 56.8199 175.58 57.4919 175.58 57.8699C175.58 57.9539 175.58 57.9959 175.496 58.0379C172.976 59.5919 168.146 63.3719 165.08 63.3719C164.912 63.3719 164.702 63.3719 164.534 63.3299C163.274 63.1199 162.182 61.9859 162.056 60.6839C162.056 60.5999 162.056 60.5159 162.014 60.3899C162.056 57.7859 165.458 53.7539 167.936 53.7539C168.608 53.7539 169.238 54.0479 169.7 54.7199C169.868 54.9719 169.91 55.1819 169.91 55.4339C169.91 55.8959 169.658 56.3579 169.49 56.9039Z" fill="#003D7E"/>
<path d="M188.68 56.7779C188.722 56.7359 188.806 56.7359 188.848 56.7359C189.31 56.7359 189.982 57.3659 189.982 57.7439C189.982 57.8279 189.982 57.9119 189.898 57.9539C188.428 58.9199 185.74 60.9779 183.598 60.9779C182.968 60.9779 182.338 60.7679 181.834 60.2639C180.826 59.2559 180.826 57.5759 180.742 56.2319C178.348 57.7019 175.618 62.8259 173.938 64.7159C173.812 64.7999 173.686 64.8419 173.56 64.8419C172.93 64.8419 172.258 64.1279 172.258 63.4559C172.258 60.9359 180.238 40.4819 180.238 40.4819C180.28 40.3559 180.364 40.3139 180.49 40.3139C180.952 40.3139 181.876 41.0699 181.708 41.4899C181.666 41.5319 176.584 54.7619 174.526 61.1459C175.744 59.4659 177.802 56.2319 179.314 55.1399C179.566 54.9299 179.818 54.8459 180.07 54.8459C180.28 54.8459 180.49 54.8879 180.7 55.0139C182.8 56.1899 181.876 58.2899 182.548 59.7599C182.59 59.7599 182.632 59.7599 182.632 59.7599C184.102 59.7599 187.546 57.5339 188.68 56.7779Z" fill="#003D7E"/>
<path d="M188.881 60.1799C188.671 60.2639 188.503 60.6839 188.503 61.1039C188.503 61.4819 188.629 61.8599 188.965 61.9859C189.217 62.0699 189.469 62.0699 189.763 62.0699C192.619 62.0699 197.365 58.5419 199.171 56.9459C199.213 56.9039 199.255 56.9039 199.339 56.9039C199.759 56.9039 200.431 57.6179 200.431 58.0799C200.431 58.1639 200.389 58.2059 200.347 58.2479C200.305 58.2899 194.551 63.3299 190.645 63.3299C190.435 63.3299 190.267 63.3299 190.099 63.3299C187.999 63.0359 187.201 61.9019 187.201 60.5159C187.201 57.7859 190.225 54.1319 192.451 54.0059C192.493 54.0059 192.535 54.0059 192.535 54.0059C193.585 54.0059 194.635 54.9299 194.635 55.9799C194.635 56.2319 194.551 56.4839 194.425 56.7359C193.375 58.4999 188.881 60.1799 188.881 60.1799ZM190.015 57.9119C191.191 57.3239 192.871 56.2739 193.123 55.3499C192.157 55.6019 190.897 56.7779 190.015 57.9119Z" fill="#003D7E"/>
<path d="M200.974 53.7119C201.058 53.6699 201.1 53.6279 201.226 53.6279C201.646 53.6279 202.444 54.2579 202.444 54.6779C202.444 54.7199 202.402 54.7619 202.402 54.8039C201.562 55.9799 199.756 58.9619 199.756 60.6839C199.756 60.8099 199.756 60.9359 199.798 61.0199C200.428 60.8519 201.352 60.0959 202.402 58.9619C203.536 57.7859 204.796 56.2319 205.972 54.5099C206.098 54.3419 206.224 54.2999 206.35 54.2999C206.854 54.2999 207.442 55.0559 207.442 55.3919C207.442 55.4759 207.442 55.5179 207.4 55.5179C207.022 56.7359 206.182 59.5919 206.182 61.2719C206.182 61.5239 206.224 61.7759 206.266 61.9439C208.534 61.6919 211.222 56.9459 211.684 54.7199C211.684 54.5939 211.852 53.3759 211.894 53.2919C211.936 53.2079 212.02 53.2079 212.146 53.2079C212.566 53.2079 213.28 53.5859 213.28 54.3839C213.28 54.9299 213.112 55.6859 213.112 56.6939C213.112 57.4079 213.238 58.1219 213.616 58.2899C213.868 58.4159 214.162 58.4579 214.456 58.4579C216.01 58.4579 218.236 57.4079 219.244 56.9039C219.286 56.8619 219.37 56.8619 219.412 56.8619C219.874 56.8619 220.63 57.5339 220.63 57.9119C220.63 57.9959 220.588 58.0379 220.504 58.0799C218.866 58.9619 217.06 59.7179 215.464 59.7179C214.876 59.7179 214.33 59.5919 213.868 59.3819C213.154 59.0459 212.65 58.6259 212.272 58.0799C211.516 59.7599 209.206 63.2039 207.064 63.2039C206.644 63.2039 206.224 63.0359 205.804 62.7419C205.048 62.1539 204.796 61.1879 204.796 60.0539C204.796 59.6759 204.796 59.2979 204.88 58.8779C203.788 60.1379 202.066 61.9439 200.932 62.2799C200.806 62.3219 200.722 62.3639 200.596 62.3639C199.84 62.3639 199.084 61.7339 199.126 61.6919C198.622 61.1879 198.412 60.5159 198.412 59.7599C198.412 57.6599 200.092 55.0139 200.974 53.7119Z" fill="#003D7E"/>
<path d="M221.786 52.2419C221.87 52.1999 221.912 52.1579 221.996 52.1579C222.458 52.1579 223.172 52.8719 223.172 53.2499C223.172 53.3339 223.172 53.3759 223.088 53.4179C221.366 54.4259 220.568 55.2659 220.568 56.3999C220.568 57.0719 220.82 57.8699 221.324 58.8359C223.046 58.0799 225.146 57.3659 227.456 56.8619C227.498 56.8199 227.54 56.8199 227.582 56.8199C228.086 56.8199 228.8 57.5339 228.8 57.9119C228.8 57.9959 228.716 58.0799 228.59 58.1219C226.028 58.7099 223.76 59.4659 221.954 60.3059C222.038 60.5159 222.038 60.7679 222.038 60.9779C222.038 61.9019 221.45 62.8259 219.476 63.7079C218.972 63.9179 218.552 64.0859 218.132 64.0859C217.628 64.0859 217.208 63.8339 216.746 63.0779C216.662 62.8679 216.62 62.6999 216.62 62.5319C216.578 61.1459 219.392 59.7599 220.358 59.2559C219.686 57.9539 219.014 56.7779 219.014 55.6859C219.014 54.5519 219.686 53.4599 221.786 52.2419ZM218.846 62.1959C219.434 61.9019 219.812 61.6079 220.106 61.3139C219.644 61.5659 219.224 61.8599 218.846 62.1959Z" fill="#003D7E"/>
<path d="M233.686 40.5659C233.728 40.4819 233.812 40.4399 233.938 40.4399C234.4 40.4399 235.282 41.1539 235.156 41.5739C235.114 41.6159 229.99 54.1739 227.848 60.7259C229.024 59.0039 232.09 54.0059 233.476 53.3339C233.644 53.2499 233.77 53.2079 233.896 53.2079C234.61 53.2079 235.282 53.9639 235.282 54.2999C235.282 54.3839 235.24 54.4259 235.198 54.4259C234.988 54.5099 234.988 54.2159 234.19 54.9299C233.434 55.6439 232.426 57.0719 231.418 58.5839C231.418 58.6679 231.376 58.7939 231.376 58.9619C231.376 59.5499 231.46 60.5579 231.922 60.8519C232.09 60.9779 232.342 61.0619 232.594 61.0619C234.568 61.0619 238.516 57.9119 239.44 56.8619C239.482 56.8199 239.566 56.7779 239.608 56.7779C239.986 56.7779 240.658 57.5339 240.658 57.9959C240.658 58.0799 240.658 58.1219 240.616 58.1639C239.146 59.8019 236.122 62.2379 233.56 62.2379C232.846 62.2379 232.216 62.0699 231.628 61.6499C231.04 61.2299 230.62 60.6839 230.368 60.1379C229.108 62.0279 227.344 64.8839 226.672 64.8839C225.832 64.8839 225.412 64.4219 225.412 63.6659C225.412 61.0619 233.686 40.6499 233.686 40.5659Z" fill="#003D7E"/>
<path d="M241.084 54.0059C241.42 53.5439 242.806 54.6359 242.47 55.0979C241.672 56.2739 240.034 58.7519 240.076 60.3059C241.042 60.0119 242.26 59.0459 243.016 58.3739C244.234 57.2399 245.956 55.2239 246.46 53.6699C246.544 53.5019 246.67 53.5019 246.88 53.5439C247.342 53.6279 248.14 54.2579 247.972 54.6779C247.3 56.5679 246.754 58.9619 246.166 60.9359C248.224 59.5079 250.324 58.2059 252.466 56.9039C252.676 56.7779 254.86 57.4079 253.138 58.4579C251.584 59.4239 248.518 61.3139 245.326 63.5819C244.444 66.3539 240.244 81.5999 235.288 76.8539C230.542 72.3179 240.748 64.7579 243.94 62.4899C244.276 61.3979 244.612 60.2219 244.906 59.0039C244.612 59.3399 244.402 59.4659 244.36 59.5079C244.36 59.5079 244.36 59.5079 244.36 59.5499C243.142 60.6419 242.05 61.3139 241.294 61.5239C240.286 61.8599 239.194 61.1879 238.774 60.2639C238.606 59.8859 238.564 59.4659 238.648 58.9199C238.816 57.8699 239.488 56.2739 241.084 54.0059ZM238.018 75.6779C239.74 73.8299 241.504 69.6299 242.974 65.3459C240.412 67.3619 233.23 73.2839 236.086 76.4759C236.548 76.8539 237.22 76.4759 238.018 75.6779Z" fill="#003D7E"/>
<g opacity="0.8">
<path d="M98.431 15.0815L99.7738 0.598145L104.837 1.0676C105.846 1.16114 106.662 1.41273 107.285 1.82237C107.909 2.2273 108.354 2.73693 108.62 3.35127C108.887 3.96089 108.987 4.6193 108.922 5.32649C108.864 5.94883 108.706 6.45245 108.447 6.83736C108.192 7.22271 107.875 7.51664 107.495 7.71916C107.119 7.9221 106.719 8.06092 106.293 8.13561L106.28 8.27704C106.721 8.34642 107.152 8.54331 107.574 8.86771C107.995 9.19212 108.332 9.63232 108.585 10.1883C108.838 10.7444 108.929 11.4042 108.858 12.168C108.791 12.8941 108.565 13.5317 108.182 14.081C107.798 14.6303 107.234 15.0417 106.491 15.3152C105.747 15.5886 104.805 15.6725 103.664 15.5667L98.431 15.0815ZM100.329 13.6883L103.809 14.0108C104.954 14.1171 105.788 13.9709 106.31 13.5723C106.837 13.1694 107.13 12.6498 107.189 12.0133C107.235 11.523 107.152 11.0588 106.94 10.6207C106.729 10.1779 106.404 9.8102 105.966 9.51749C105.527 9.22007 104.992 9.04207 104.36 8.98349L100.796 8.65304L100.329 13.6883ZM100.938 7.1255L104.191 7.4271C104.719 7.47606 105.205 7.41649 105.648 7.24838C106.096 7.08072 106.463 6.81988 106.748 6.46588C107.037 6.11231 107.206 5.68094 107.253 5.17176C107.312 4.53528 107.14 3.97491 106.738 3.49065C106.337 3.00167 105.655 2.7126 104.693 2.62343L101.383 2.31658L100.938 7.1255Z" fill="black"/>
<path d="M114.33 16.8123C113.642 16.7485 113.029 16.5609 112.492 16.2496C111.955 15.9336 111.545 15.5127 111.261 14.9871C110.977 14.4567 110.868 13.838 110.934 13.1308C110.991 12.5084 111.161 12.0153 111.442 11.6515C111.723 11.2829 112.079 11.0068 112.51 10.8233C112.941 10.6397 113.409 10.5167 113.914 10.4541C114.424 10.3873 114.934 10.3443 115.445 10.325C116.113 10.3014 116.654 10.2873 117.068 10.2829C117.487 10.2742 117.796 10.2244 117.995 10.1335C118.198 10.043 118.312 9.86334 118.337 9.59461L118.342 9.53803C118.407 8.84026 118.266 8.28038 117.92 7.85837C117.579 7.43681 117.024 7.1904 116.256 7.11915C115.459 7.04528 114.818 7.1618 114.333 7.46872C113.848 7.77564 113.495 8.11859 113.275 8.49757L111.743 7.78495C112.087 7.15113 112.512 6.6722 113.018 6.34817C113.528 6.01986 114.071 5.80864 114.646 5.7145C115.225 5.61609 115.789 5.59223 116.336 5.64294C116.684 5.67529 117.081 5.75487 117.526 5.8817C117.976 6.00424 118.401 6.21248 118.802 6.50641C119.207 6.80078 119.528 7.21803 119.763 7.75815C119.998 8.29827 120.076 8.99972 119.996 9.86249L119.332 17.0193L117.663 16.8646L117.8 15.3936L117.715 15.3857C117.58 15.611 117.368 15.8457 117.079 16.09C116.79 16.3342 116.417 16.5303 115.961 16.6783C115.506 16.8262 114.962 16.8709 114.33 16.8123ZM114.724 15.3367C115.384 15.3978 115.952 15.3198 116.429 15.1024C116.91 14.8855 117.285 14.5827 117.554 14.1939C117.828 13.8056 117.986 13.3852 118.028 12.9326L118.169 11.405C118.091 11.4833 117.928 11.5467 117.681 11.5951C117.439 11.6393 117.16 11.6729 116.844 11.6959C116.533 11.7146 116.23 11.7293 115.934 11.7399C115.644 11.7462 115.408 11.7529 115.226 11.7598C114.787 11.7762 114.373 11.8305 113.984 11.9229C113.601 12.0109 113.282 12.1692 113.027 12.3976C112.778 12.6218 112.634 12.9461 112.595 13.3704C112.541 13.9503 112.715 14.4086 113.116 14.7454C113.523 15.0779 114.059 15.275 114.724 15.3367Z" fill="black"/>
<path d="M124.653 10.922L124.047 17.4565L122.378 17.3017L123.386 6.43922L124.998 6.58871L124.841 8.28598L124.982 8.29909C125.288 7.77109 125.715 7.36375 126.265 7.0771C126.815 6.78573 127.5 6.67807 128.321 6.75413C129.056 6.82232 129.686 7.03285 130.209 7.38573C130.733 7.73389 131.121 8.22627 131.371 8.86287C131.621 9.49476 131.703 10.2727 131.618 11.1968L130.978 18.099L129.309 17.9443L129.938 11.1552C130.017 10.3019 129.858 9.61656 129.458 9.09929C129.06 8.57731 128.474 8.28048 127.701 8.20879C127.168 8.1594 126.681 8.23076 126.24 8.42287C125.804 8.61542 125.445 8.92214 125.163 9.34302C124.882 9.76391 124.712 10.2902 124.653 10.922Z" fill="black"/>
<path d="M138.42 19.0172C137.401 18.9228 136.547 18.601 135.856 18.052C135.165 17.5029 134.66 16.788 134.343 15.9074C134.025 15.0268 133.916 14.0443 134.017 12.9599C134.119 11.8567 134.412 10.9019 134.896 10.0956C135.385 9.28496 136.017 8.67544 136.791 8.26701C137.571 7.85431 138.452 7.69342 139.432 7.78434C140.196 7.85515 140.871 8.06041 141.458 8.40011C142.045 8.73981 142.51 9.18239 142.854 9.72785C143.198 10.2733 143.386 10.8899 143.418 11.5775L141.749 11.4228C141.667 10.9159 141.425 10.4513 141.022 10.0287C140.624 9.6019 140.057 9.3544 139.322 9.28621C138.671 9.22589 138.085 9.34273 137.563 9.63672C137.047 9.92644 136.623 10.3651 136.293 10.9526C135.968 11.5359 135.767 12.2377 135.691 13.058C135.613 13.8973 135.677 14.6403 135.884 15.2871C136.095 15.9343 136.427 16.4525 136.881 16.8417C137.339 17.2313 137.899 17.4568 138.559 17.518C138.992 17.5582 139.393 17.5192 139.761 17.4011C140.128 17.2831 140.448 17.0939 140.719 16.8338C140.99 16.5737 141.196 16.2504 141.337 15.864L143.006 16.0187C142.852 16.6511 142.565 17.207 142.145 17.6864C141.73 18.1615 141.204 18.5217 140.568 18.7671C139.937 19.0081 139.221 19.0915 138.42 19.0172Z" fill="black"/>
<path d="M149.544 20.0486C148.563 19.9576 147.724 19.6445 147.027 19.1091C146.335 18.5742 145.821 17.8679 145.483 16.9902C145.151 16.113 145.037 15.1133 145.141 13.9912C145.246 12.8597 145.543 11.891 146.031 11.0851C146.524 10.2797 147.16 9.67768 147.939 9.27913C148.722 8.881 149.604 8.7274 150.585 8.81832C151.566 8.90924 152.402 9.22217 153.094 9.7571C153.791 10.2925 154.306 11.0011 154.638 11.8831C154.974 12.7655 155.09 13.7724 154.985 14.9039C154.881 16.026 154.583 16.9874 154.09 17.7882C153.602 18.5893 152.966 19.189 152.183 19.5871C151.404 19.9857 150.524 20.1395 149.544 20.0486ZM149.683 18.5493C150.428 18.6184 151.058 18.4843 151.575 18.147C152.091 17.8097 152.493 17.3406 152.782 16.7396C153.071 16.1387 153.249 15.4752 153.316 14.7492C153.383 14.0231 153.331 13.3359 153.158 12.6874C152.985 12.039 152.676 11.4991 152.231 11.0679C151.786 10.6368 151.191 10.3866 150.446 10.3176C149.701 10.2485 149.07 10.385 148.553 10.727C148.037 11.069 147.634 11.5428 147.345 12.1485C147.055 12.7541 146.877 13.4199 146.81 14.146C146.743 14.872 146.796 15.5569 146.969 16.2007C147.142 16.8444 147.452 17.3795 147.897 17.806C148.343 18.2325 148.938 18.4803 149.683 18.5493Z" fill="black"/>
<path d="M164.205 6.57174L166.298 6.76581L170.105 19.2445L170.275 19.2602L176.312 7.69423L178.405 7.88831L177.062 22.3717L175.422 22.2195L176.442 11.2156L176.3 11.2025L170.754 21.7868L169.17 21.6399L165.664 10.2164L165.523 10.2032L164.502 21.2072L162.862 21.0551L164.205 6.57174Z" fill="black"/>
<path d="M183.525 23.2276C182.837 23.1638 182.224 22.9763 181.687 22.6649C181.151 22.3489 180.74 21.9281 180.456 21.4024C180.173 20.8721 180.064 20.2533 180.129 19.5461C180.187 18.9238 180.356 18.4307 180.637 18.0668C180.919 17.6982 181.275 17.4222 181.705 17.2386C182.136 17.055 182.604 16.932 183.109 16.8695C183.619 16.8026 184.13 16.7596 184.64 16.7404C185.308 16.7167 185.849 16.7027 186.263 16.6983C186.683 16.6896 186.992 16.6398 187.19 16.5488C187.394 16.4583 187.508 16.2787 187.533 16.01L187.538 15.9534C187.603 15.2556 187.462 14.6957 187.116 14.2737C186.775 13.8522 186.22 13.6057 185.451 13.5345C184.654 13.4606 184.014 13.5771 183.529 13.8841C183.044 14.191 182.691 14.5339 182.47 14.9129L180.939 14.2003C181.283 13.5665 181.707 13.0875 182.213 12.7635C182.724 12.4352 183.266 12.224 183.841 12.1299C184.421 12.0314 184.984 12.0076 185.531 12.0583C185.88 12.0906 186.277 12.1702 186.721 12.297C187.171 12.4196 187.597 12.6278 187.997 12.9218C188.403 13.2161 188.723 13.6334 188.958 14.1735C189.194 14.7136 189.271 15.4151 189.191 16.2778L188.528 23.4346L186.859 23.2799L186.995 21.8089L186.91 21.8011C186.775 22.0263 186.563 22.2611 186.274 22.5053C185.985 22.7496 185.613 22.9457 185.157 23.0936C184.701 23.2415 184.157 23.2862 183.525 23.2276ZM183.919 21.752C184.579 21.8132 185.147 21.7351 185.624 21.5178C186.105 21.3009 186.481 20.998 186.75 20.6093C187.023 20.221 187.181 19.8005 187.223 19.3479L187.365 17.8204C187.286 17.8987 187.123 17.962 186.876 18.0105C186.635 18.0546 186.356 18.0882 186.04 18.1112C185.729 18.1299 185.426 18.1446 185.13 18.1552C184.839 18.1616 184.603 18.1682 184.422 18.1752C183.983 18.1916 183.569 18.2459 183.18 18.3382C182.796 18.4263 182.477 18.5845 182.223 18.813C181.974 19.0372 181.83 19.3614 181.79 19.7857C181.736 20.3656 181.91 20.824 182.312 21.1608C182.718 21.4933 183.254 21.6904 183.919 21.752Z" fill="black"/>
<path d="M200.05 16.0007L198.511 16.286C198.44 16.0274 198.323 15.7717 198.161 15.5189C198.004 15.2618 197.778 15.0411 197.481 14.8567C197.184 14.6722 196.793 14.5575 196.307 14.5125C195.643 14.4509 195.075 14.5527 194.603 14.8181C194.136 15.0792 193.882 15.4431 193.838 15.9098C193.8 16.3247 193.92 16.6664 194.2 16.9348C194.479 17.2032 194.932 17.4473 195.558 17.667L197.134 18.2126C198.084 18.5383 198.774 18.9661 199.205 19.4959C199.637 20.0209 199.817 20.6629 199.747 21.422C199.689 22.0443 199.458 22.584 199.055 23.0412C198.655 23.4987 198.125 23.8394 197.462 24.0633C196.799 24.2871 196.046 24.3599 195.202 24.2817C194.094 24.179 193.199 23.8535 192.518 23.3053C191.836 22.7571 191.442 22.012 191.334 21.07L192.955 20.8209C193.052 21.4195 193.296 21.8844 193.689 22.2156C194.086 22.5472 194.626 22.7447 195.31 22.8081C196.088 22.8802 196.721 22.7725 197.209 22.4849C197.702 22.193 197.97 21.8136 198.013 21.3469C198.048 20.9697 197.946 20.6416 197.705 20.3625C197.465 20.0787 197.078 19.8479 196.543 19.6699L194.771 19.0777C193.799 18.7497 193.102 18.3166 192.681 17.7783C192.265 17.2357 192.092 16.5896 192.161 15.84C192.218 15.2271 192.441 14.7008 192.829 14.2613C193.221 13.8222 193.729 13.496 194.353 13.2828C194.981 13.07 195.677 12.999 196.441 13.0698C197.516 13.1695 198.338 13.4834 198.907 14.0117C199.481 14.5405 199.862 15.2034 200.05 16.0007Z" fill="black"/>
<path d="M207.71 14.2572L207.578 15.6716L201.949 15.1497L202.08 13.7353L207.71 14.2572ZM203.962 11.2849L205.631 11.4397L204.671 21.793C204.628 22.2645 204.663 22.6244 204.778 22.8728C204.898 23.1169 205.063 23.2891 205.272 23.3894C205.487 23.4854 205.717 23.5447 205.962 23.5674C206.146 23.5845 206.298 23.589 206.417 23.5811C206.537 23.5685 206.633 23.5583 206.705 23.5508L206.906 25.0815C206.789 25.1134 206.627 25.1412 206.42 25.1649C206.213 25.1932 205.954 25.193 205.643 25.1641C205.171 25.1204 204.719 24.9762 204.285 24.7315C203.856 24.4872 203.512 24.1439 203.253 23.7015C203 23.2595 202.902 22.7226 202.96 22.0909L203.962 11.2849Z" fill="black"/>
<path d="M213.63 25.9902C212.583 25.8932 211.702 25.5784 210.985 25.046C210.274 24.5093 209.752 23.8047 209.42 22.9322C209.092 22.0554 208.98 21.0607 209.083 19.948C209.186 18.8354 209.48 17.8735 209.964 17.0625C210.453 16.2472 211.085 15.6353 211.86 15.2269C212.64 14.8142 213.521 14.6533 214.501 14.7442C215.067 14.7967 215.617 14.9428 216.151 15.1825C216.685 15.4222 217.159 15.7752 217.572 16.2415C217.986 16.7031 218.295 17.2928 218.499 18.0108C218.704 18.7288 218.759 19.5946 218.665 20.6082L218.6 21.3154L210.226 20.5391L210.36 19.0964L217.036 19.7154C217.093 19.1025 217.021 18.5442 216.82 18.0406C216.625 17.5374 216.316 17.126 215.893 16.8063C215.476 16.487 214.966 16.2994 214.362 16.2435C213.697 16.1818 213.107 16.2935 212.591 16.5785C212.08 16.8592 211.67 17.2492 211.362 17.7485C211.055 18.2478 210.873 18.7968 210.817 19.3956L210.728 20.3574C210.652 21.1777 210.729 21.8862 210.959 22.4829C211.194 23.0754 211.553 23.5437 212.034 23.8879C212.516 24.2274 213.095 24.4284 213.769 24.4909C214.207 24.5316 214.609 24.507 214.974 24.4172C215.344 24.3232 215.67 24.1632 215.953 23.9374C216.236 23.7068 216.465 23.4095 216.642 23.0455L218.212 23.6475C217.992 24.1787 217.662 24.6332 217.223 25.0109C216.784 25.3839 216.259 25.6586 215.648 25.835C215.038 26.0066 214.365 26.0584 213.63 25.9902Z" fill="black"/>
<path d="M220.687 26.4163L221.694 15.5538L223.307 15.7033L223.155 17.344L223.268 17.3544C223.516 16.8353 223.914 16.4325 224.464 16.1458C225.014 15.8591 225.614 15.746 226.264 15.8063C226.387 15.8177 226.54 15.8342 226.723 15.856C226.907 15.8777 227.045 15.8977 227.139 15.9159L226.981 17.6132C226.926 17.5938 226.798 17.5605 226.598 17.5134C226.403 17.4621 226.195 17.4261 225.973 17.4056C225.445 17.3566 224.964 17.4237 224.528 17.6068C224.098 17.7857 223.745 18.0573 223.468 18.4216C223.197 18.7816 223.039 19.2068 222.994 19.6971L222.356 26.571L220.687 26.4163Z" fill="black"/>
<path d="M242.852 17.5154C242.833 16.7909 242.541 16.2026 241.974 15.7507C241.407 15.2987 240.685 15.032 239.809 14.9507C239.167 14.8913 238.597 14.943 238.097 15.1058C237.601 15.2691 237.202 15.5198 236.9 15.858C236.602 16.1965 236.432 16.5968 236.389 17.0588C236.353 17.4454 236.414 17.7863 236.572 18.0815C236.736 18.3725 236.955 18.6234 237.23 18.8344C237.506 19.0407 237.799 19.2176 238.108 19.3652C238.418 19.508 238.705 19.6273 238.967 19.7229L240.401 20.2553C240.769 20.3893 241.176 20.5649 241.622 20.7822C242.072 20.9999 242.496 21.2793 242.892 21.6204C243.294 21.9572 243.612 22.3719 243.847 22.8644C244.082 23.357 244.168 23.9427 244.105 24.6216C244.032 25.4042 243.761 26.0924 243.293 26.6861C242.829 27.2803 242.188 27.7273 241.371 28.0272C240.558 28.3275 239.596 28.4261 238.483 28.323C237.446 28.2268 236.563 27.9762 235.835 27.5711C235.112 27.1664 234.561 26.6446 234.183 26.0056C233.81 25.3671 233.631 24.6491 233.648 23.8518L235.458 24.0197C235.455 24.571 235.597 25.0406 235.884 25.4286C236.177 25.8124 236.562 26.1144 237.041 26.3348C237.525 26.5508 238.055 26.6855 238.63 26.7389C239.3 26.8009 239.911 26.7482 240.464 26.5807C241.017 26.4086 241.467 26.1412 241.815 25.7788C242.163 25.4116 242.361 24.964 242.41 24.4359C242.455 23.955 242.356 23.5513 242.116 23.2246C241.875 22.898 241.544 22.62 241.123 22.3908C240.702 22.1615 240.244 21.9526 239.748 21.764L238.013 21.0896C236.911 20.6593 236.059 20.1119 235.454 19.4472C234.85 18.7826 234.594 17.9623 234.684 16.9863C234.759 16.1754 235.044 15.4885 235.538 14.9257C236.038 14.3586 236.676 13.9422 237.452 13.6766C238.233 13.4066 239.085 13.3145 240.009 13.4001C240.943 13.4867 241.757 13.731 242.452 14.133C243.148 14.5304 243.681 15.0363 244.052 15.6508C244.428 16.2658 244.593 16.9398 244.549 17.6727L242.852 17.5154Z" fill="black"/>
<path d="M252.923 14.1124L246.648 31.0201L245.12 30.8784L251.396 13.9708L252.923 14.1124Z" fill="black"/>
<path d="M254.316 29.5341L252.477 29.3637L259.138 15.3734L260.949 15.5412L264.924 30.5176L263.085 30.3471L259.888 17.7539L259.775 17.7434L254.316 29.5341ZM255.52 23.9395L262.931 24.6267L262.787 26.1825L255.375 25.4953L255.52 23.9395Z" fill="black"/>
<path d="M100.836 39.6071C99.9028 39.5206 99.0855 39.2831 98.3844 38.8948C97.6881 38.5069 97.1519 38.0078 96.7757 37.3975C96.4048 36.783 96.2356 36.0945 96.2682 35.3319L98.0504 35.4972C98.0448 35.9674 98.1677 36.3854 98.4191 36.751C98.671 37.112 99.017 37.4056 99.4573 37.6319C99.8976 37.8582 100.396 37.9971 100.952 38.0487C101.575 38.1064 102.136 38.0491 102.637 37.8768C103.138 37.7045 103.543 37.4377 103.853 37.0765C104.162 36.7152 104.34 36.28 104.387 35.7708C104.437 35.2381 104.348 34.7567 104.122 34.3268C103.896 33.8922 103.539 33.5357 103.051 33.2575C102.563 32.9793 101.952 32.8061 101.216 32.7379L100.057 32.6304L100.201 31.0745L101.361 31.1821C101.936 31.2354 102.45 31.1784 102.903 31.0112C103.361 30.8444 103.729 30.5838 104.01 30.2293C104.294 29.8753 104.46 29.4438 104.508 28.9346C104.553 28.4443 104.484 28.0075 104.301 27.6244C104.118 27.2413 103.838 26.93 103.46 26.6905C103.088 26.4515 102.635 26.3073 102.102 26.2579C101.603 26.2116 101.123 26.2598 100.662 26.4026C100.207 26.5411 99.8248 26.7695 99.5148 27.0879C99.2051 27.4016 99.0162 27.7978 98.9481 28.2765L97.2508 28.1191C97.3495 27.3627 97.6398 26.7191 98.1217 26.1884C98.604 25.653 99.2066 25.2571 99.9294 25.0008C100.657 24.7449 101.438 24.6556 102.272 24.733C103.168 24.8161 103.92 25.0688 104.527 25.4913C105.135 25.909 105.584 26.4285 105.874 27.0498C106.163 27.671 106.276 28.3235 106.213 29.0071C106.137 29.8227 105.858 30.4982 105.376 31.0336C104.898 31.5695 104.284 31.9143 103.532 32.0681L103.522 32.1813C104.423 32.417 105.101 32.8721 105.557 33.5468C106.013 34.2168 106.198 35.0115 106.113 35.9308C106.04 36.7182 105.76 37.4055 105.273 37.9927C104.791 38.5757 104.165 39.0123 103.397 39.3024C102.628 39.5925 101.774 39.6941 100.836 39.6071Z" fill="black"/>
<path d="M113.516 40.7827C112.583 40.6962 111.765 40.4587 111.064 40.0704C110.368 39.6825 109.832 39.1834 109.456 38.5732C109.085 37.9586 108.916 37.2701 108.948 36.5075L110.73 36.6728C110.725 37.143 110.848 37.561 111.099 37.9267C111.351 38.2876 111.697 38.5812 112.137 38.8075C112.578 39.0338 113.076 39.1727 113.632 39.2243C114.255 39.282 114.816 39.2247 115.317 39.0524C115.818 38.8801 116.223 38.6133 116.533 38.2521C116.842 37.8908 117.02 37.4556 117.067 36.9465C117.117 36.4137 117.028 35.9324 116.802 35.5024C116.576 35.0678 116.219 34.7113 115.731 34.4331C115.243 34.1549 114.632 33.9817 113.896 33.9135L112.737 33.806L112.881 32.2501L114.041 32.3577C114.616 32.411 115.13 32.354 115.583 32.1868C116.041 32.02 116.409 31.7594 116.69 31.405C116.974 31.051 117.14 30.6194 117.188 30.1102C117.233 29.6199 117.164 29.1831 116.981 28.8C116.798 28.4169 116.518 28.1056 116.14 27.8661C115.768 27.6271 115.315 27.4829 114.782 27.4335C114.283 27.3872 113.803 27.4354 113.342 27.5782C112.887 27.7167 112.505 27.9451 112.195 28.2635C111.885 28.5772 111.696 28.9734 111.628 29.4521L109.931 29.2947C110.029 28.5383 110.32 27.8947 110.802 27.364C111.284 26.8286 111.887 26.4327 112.609 26.1764C113.337 25.9205 114.118 25.8312 114.952 25.9086C115.848 25.9917 116.6 26.2444 117.207 26.6669C117.815 27.0847 118.264 27.6042 118.554 28.2254C118.843 28.8466 118.956 29.4991 118.893 30.1827C118.817 30.9983 118.538 31.6738 118.056 32.2092C117.578 32.7451 116.964 33.0899 116.212 33.2438L116.202 33.3569C117.103 33.5926 117.781 34.0478 118.237 34.7224C118.693 35.3924 118.878 36.1871 118.793 37.1064C118.72 37.8938 118.44 38.5811 117.953 39.1684C117.471 39.7513 116.845 40.1879 116.077 40.478C115.308 40.7681 114.454 40.8697 113.516 40.7827Z" fill="black"/>
<path d="M122.108 41.4937C121.759 41.4613 121.471 41.3086 121.244 41.0356C121.018 40.7626 120.92 40.4516 120.953 40.1027C120.985 39.7538 121.138 39.466 121.411 39.2393C121.684 39.0126 121.995 38.9154 122.344 38.9478C122.693 38.9801 122.98 39.1328 123.207 39.4059C123.434 39.6789 123.531 39.9899 123.499 40.3387C123.477 40.5698 123.399 40.7765 123.263 40.9588C123.132 41.1416 122.964 41.283 122.76 41.383C122.561 41.4786 122.343 41.5155 122.108 41.4937Z" fill="black"/>
<path d="M132.194 27.5071C132.787 27.5669 133.371 27.7351 133.944 28.0118C134.518 28.2885 135.026 28.7065 135.469 29.2658C135.912 29.8205 136.241 30.5524 136.456 31.4615C136.672 32.3707 136.718 33.4901 136.594 34.8196C136.475 36.1067 136.246 37.2386 135.909 38.2154C135.576 39.1879 135.149 39.9947 134.628 40.636C134.112 41.2776 133.513 41.7451 132.829 42.0384C132.151 42.3321 131.404 42.4411 130.588 42.3655C129.777 42.2903 129.068 42.0629 128.461 41.6833C127.86 41.2994 127.383 40.8011 127.031 40.1883C126.684 39.5713 126.489 38.8756 126.447 38.1014L128.172 38.2613C128.266 38.9405 128.524 39.5184 128.946 39.995C129.373 40.4673 129.968 40.7389 130.732 40.8097C131.85 40.9133 132.776 40.507 133.513 39.591C134.254 38.6754 134.707 37.3265 134.872 35.5444L134.759 35.5339C134.458 35.9055 134.113 36.2182 133.724 36.4721C133.334 36.7261 132.91 36.9103 132.453 37.0248C131.995 37.1393 131.516 37.1734 131.017 37.127C130.187 37.0501 129.444 36.7744 128.789 36.3C128.139 35.8213 127.641 35.202 127.293 34.4422C126.95 33.6781 126.822 32.8293 126.908 31.8959C126.99 31.0095 127.263 30.2169 127.728 29.5182C128.197 28.8151 128.813 28.2778 129.575 27.9062C130.341 27.5351 131.214 27.4021 132.194 27.5071ZM132.049 29.0629C131.455 29.0079 130.907 29.1068 130.403 29.3596C129.904 29.6082 129.493 29.9695 129.168 30.4435C128.849 30.9132 128.661 31.4497 128.605 32.0532C128.549 32.6567 128.63 33.2182 128.849 33.7377C129.072 34.2529 129.401 34.6781 129.836 35.0133C130.276 35.3441 130.793 35.5371 131.387 35.5922C131.835 35.6337 132.26 35.5852 132.663 35.4466C133.066 35.3033 133.426 35.0917 133.742 34.8119C134.063 34.5279 134.324 34.1978 134.526 33.8218C134.727 33.4411 134.848 33.0362 134.888 32.6072C134.94 32.0414 134.853 31.4983 134.625 30.9779C134.402 30.458 134.067 30.0227 133.619 29.6721C133.176 29.3219 132.653 29.1189 132.049 29.0629Z" fill="black"/>
<path d="M138.649 42.9131L138.767 41.6402L144.033 36.8502C144.651 36.2893 145.162 35.7994 145.567 35.3804C145.972 34.9568 146.281 34.5527 146.493 34.1681C146.709 33.7792 146.838 33.3632 146.879 32.9201C146.926 32.4109 146.845 31.9587 146.634 31.5635C146.428 31.1688 146.125 30.8506 145.724 30.6089C145.323 30.3673 144.861 30.2222 144.338 30.1737C143.782 30.1221 143.285 30.1926 142.849 30.3852C142.418 30.5734 142.07 30.8622 141.806 31.2514C141.546 31.641 141.391 32.1116 141.34 32.6632L139.671 32.5085C139.749 31.6599 140.014 30.9331 140.465 30.3282C140.915 29.7233 141.495 29.2729 142.202 28.9771C142.914 28.6817 143.692 28.5732 144.536 28.6514C145.385 28.7301 146.12 28.979 146.742 29.398C147.364 29.8171 147.833 30.348 148.149 30.9907C148.466 31.6334 148.589 32.3273 148.52 33.0722C148.471 33.6049 148.326 34.1169 148.085 34.6082C147.85 35.0952 147.467 35.628 146.938 36.2066C146.414 36.7809 145.696 37.4752 144.784 38.2893L141.208 41.4671L141.198 41.5802L147.93 42.2044L147.786 43.7603L138.649 42.9131Z" fill="black"/>
<path d="M155.582 44.6828C154.648 44.5962 153.831 44.3588 153.13 43.9704C152.434 43.5825 151.898 43.0835 151.521 42.4732C151.15 41.8587 150.981 41.1701 151.014 40.4076L152.796 40.5728C152.791 41.0431 152.913 41.461 153.165 41.8267C153.417 42.1877 153.763 42.4813 154.203 42.7076C154.643 42.9338 155.142 43.0728 155.698 43.1243C156.32 43.182 156.882 43.1247 157.383 42.9525C157.884 42.7802 158.289 42.5134 158.598 42.1521C158.908 41.7909 159.086 41.3557 159.133 40.8465C159.182 40.3138 159.094 39.8324 158.868 39.4025C158.642 38.9678 158.285 38.6114 157.797 38.3332C157.309 38.0549 156.698 37.8817 155.962 37.8135L154.802 37.706L154.946 36.1502L156.106 36.2577C156.681 36.311 157.196 36.2541 157.649 36.0869C158.106 35.9201 158.475 35.6595 158.755 35.305C159.04 34.951 159.206 34.5194 159.253 34.0102C159.299 33.5199 159.23 33.0832 159.047 32.7001C158.863 32.3169 158.583 32.0056 158.206 31.7662C157.834 31.5272 157.381 31.383 156.848 31.3336C156.348 31.2872 155.868 31.3355 155.408 31.4783C154.953 31.6168 154.571 31.8452 154.26 32.1636C153.951 32.4772 153.762 32.8734 153.694 33.3521L151.996 33.1948C152.095 32.4383 152.385 31.7948 152.867 31.2641C153.35 30.7287 153.952 30.3328 154.675 30.0765C155.403 29.8206 156.184 29.7313 157.018 29.8087C157.914 29.8917 158.665 30.1445 159.273 30.5669C159.881 30.9847 160.33 31.5042 160.619 32.1254C160.909 32.7467 161.022 33.3991 160.958 34.0827C160.883 34.8984 160.604 35.5739 160.122 36.1093C159.644 36.6451 159.029 36.99 158.278 37.1438L158.268 37.257C159.168 37.4926 159.846 37.9478 160.302 38.6225C160.758 39.2925 160.944 40.0871 160.859 41.0065C160.786 41.7938 160.506 42.4811 160.018 43.0684C159.536 43.6514 158.911 44.088 158.142 44.3781C157.374 44.6682 156.52 44.7698 155.582 44.6828Z" fill="black"/>
<path d="M164.173 45.3937C163.824 45.3614 163.537 45.2087 163.31 44.9357C163.083 44.6626 162.986 44.3516 163.018 44.0028C163.051 43.6539 163.203 43.3661 163.477 43.1394C163.75 42.9127 164.061 42.8155 164.409 42.8478C164.758 42.8802 165.046 43.0329 165.273 43.3059C165.5 43.579 165.597 43.8899 165.564 44.2388C165.543 44.4698 165.464 44.6765 165.329 44.8589C165.197 45.0417 165.03 45.1831 164.826 45.283C164.627 45.3787 164.409 45.4156 164.173 45.3937Z" fill="black"/>
<path d="M168.584 45.6886L176.25 33.4748L176.261 33.3616L168.793 32.6693L168.937 31.1134L178.216 31.9737L178.063 33.6144L170.423 45.859L168.584 45.6886Z" fill="black"/>
<path d="M185.286 32.4295C185.88 32.4893 186.464 32.6575 187.037 32.9342C187.611 33.2109 188.119 33.6289 188.561 34.1882C189.004 34.7429 189.334 35.4748 189.549 36.3839C189.764 37.2931 189.81 38.4125 189.687 39.742C189.568 41.0291 189.339 42.161 189.001 43.1378C188.668 44.1103 188.242 44.9171 187.721 45.5584C187.205 46.2 186.605 46.6675 185.922 46.9608C185.243 47.2545 184.496 47.3635 183.681 47.2879C182.87 47.2127 182.161 46.9853 181.554 46.6057C180.952 46.2218 180.476 45.7235 180.123 45.1107C179.776 44.4937 179.582 43.798 179.539 43.0238L181.265 43.1837C181.359 43.8629 181.617 44.4408 182.039 44.9174C182.466 45.3897 183.061 45.6613 183.825 45.7321C184.942 45.8357 185.869 45.4294 186.605 44.5134C187.347 43.5978 187.8 42.2489 187.965 40.4668L187.852 40.4563C187.551 40.8279 187.206 41.1406 186.816 41.3945C186.426 41.6485 186.003 41.8327 185.545 41.9472C185.088 42.0617 184.609 42.0958 184.109 42.0494C183.279 41.9725 182.537 41.6968 181.882 41.2224C181.232 40.7437 180.733 40.1244 180.385 39.3646C180.042 38.6005 179.914 37.7517 180.001 36.8183C180.083 35.9319 180.356 35.1393 180.82 34.4406C181.29 33.7375 181.905 33.2002 182.667 32.8286C183.434 32.4575 184.307 32.3245 185.286 32.4295ZM185.142 33.9853C184.548 33.9303 183.999 34.0292 183.495 34.282C182.997 34.5306 182.585 34.8919 182.261 35.3659C181.942 35.8356 181.754 36.3721 181.698 36.9756C181.642 37.5791 181.723 38.1406 181.941 38.6601C182.164 39.1753 182.494 39.6005 182.929 39.9357C183.369 40.2665 183.886 40.4595 184.48 40.5146C184.928 40.5561 185.353 40.5076 185.756 40.369C186.159 40.2257 186.519 40.0141 186.835 39.7343C187.156 39.4502 187.417 39.1202 187.618 38.7442C187.82 38.3635 187.941 37.9586 187.98 37.5296C188.033 36.9638 187.945 36.4207 187.718 35.9003C187.495 35.3804 187.16 34.9451 186.712 34.5945C186.269 34.2443 185.746 34.0413 185.142 33.9853Z" fill="black"/>
<path d="M196.362 48.4637C195.391 48.3736 194.549 48.122 193.836 47.7088C193.128 47.2913 192.595 46.7592 192.236 46.1125C191.878 45.4612 191.738 44.7444 191.815 43.9622C191.867 43.3488 192.04 42.7942 192.333 42.2984C192.627 41.7978 193.002 41.3927 193.459 41.0831C193.921 40.7693 194.42 40.5897 194.957 40.5444L194.965 40.4595C194.288 40.2161 193.773 39.776 193.418 39.1393C193.064 38.4978 192.925 37.793 193.001 37.0249C193.064 36.289 193.311 35.6486 193.742 35.1037C194.173 34.5587 194.734 34.1495 195.425 33.8759C196.121 33.6028 196.893 33.5056 197.742 33.5843C198.581 33.6621 199.315 33.899 199.944 34.2949C200.573 34.6908 201.049 35.1962 201.373 35.8111C201.701 36.4264 201.833 37.102 201.77 37.838C201.694 38.606 201.42 39.2725 200.95 39.8375C200.484 40.3983 199.903 40.7367 199.208 40.8529L199.2 40.9378C199.714 41.0806 200.165 41.3483 200.552 41.7408C200.939 42.1286 201.234 42.5957 201.435 43.1422C201.637 43.684 201.712 44.2615 201.659 44.8749C201.582 45.6571 201.305 46.3352 200.829 46.9091C200.358 47.4789 199.736 47.9039 198.963 48.1841C198.196 48.4601 197.329 48.5533 196.362 48.4637ZM196.507 46.9078C197.162 46.9686 197.737 46.915 198.233 46.747C198.729 46.579 199.125 46.3137 199.42 45.9511C199.715 45.5886 199.889 45.1482 199.942 44.63C199.988 44.0827 199.891 43.5863 199.652 43.1409C199.413 42.6955 199.064 42.3303 198.605 42.0453C198.151 41.7607 197.618 41.59 197.005 41.5332C196.387 41.4759 195.824 41.545 195.317 41.7404C194.813 41.9363 194.403 42.2311 194.086 42.6249C193.774 43.0192 193.595 43.49 193.549 44.0373C193.496 44.5555 193.579 45.0197 193.798 45.4299C194.021 45.8405 194.363 46.1742 194.825 46.4309C195.286 46.6877 195.846 46.8466 196.507 46.9078ZM197.144 40.0339C197.662 40.082 198.132 40.0209 198.552 39.8506C198.976 39.6808 199.322 39.4203 199.587 39.0693C199.853 38.7182 200.011 38.2931 200.062 37.7937C200.103 37.303 200.027 36.8656 199.834 36.4816C199.642 36.0929 199.355 35.7809 198.972 35.5458C198.59 35.3059 198.133 35.1612 197.6 35.1118C197.058 35.0616 196.575 35.119 196.151 35.2841C195.727 35.4446 195.387 35.6984 195.131 36.0456C194.876 36.3881 194.728 36.8047 194.687 37.2954C194.636 37.7948 194.707 38.2411 194.898 38.6346C195.095 39.0284 195.386 39.3479 195.772 39.5929C196.159 39.838 196.616 39.985 197.144 40.0339Z" fill="black"/>
<path d="M210.567 34.2884L204.292 51.196L202.764 51.0544L209.04 34.1467L210.567 34.2884Z" fill="black"/>
<path d="M215.817 50.2674C214.752 50.1686 213.871 49.7945 213.175 49.1451C212.48 48.491 211.985 47.5916 211.692 46.447C211.399 45.2976 211.326 43.9356 211.472 42.3609C211.617 40.7956 211.939 39.4774 212.438 38.4062C212.941 37.3307 213.595 36.5354 214.399 36.0203C215.208 35.5009 216.141 35.2901 217.197 35.388C218.253 35.4859 219.128 35.8643 219.823 36.5231C220.523 37.1777 221.02 38.0797 221.313 39.229C221.611 40.3741 221.687 41.7293 221.542 43.2946C221.396 44.8692 221.074 46.1945 220.574 47.2705C220.076 48.3417 219.424 49.1349 218.621 49.65C217.817 50.1604 216.883 50.3662 215.817 50.2674ZM215.961 48.7116C217.018 48.8095 217.885 48.3764 218.564 47.4122C219.243 46.4481 219.67 45.023 219.845 43.1372C219.961 41.8831 219.926 40.8028 219.739 39.8962C219.557 38.9901 219.237 38.2829 218.78 37.7745C218.328 37.2666 217.753 36.9803 217.055 36.9156C216.008 36.8185 215.143 37.259 214.458 38.2368C213.773 39.21 213.343 40.6371 213.169 42.5182C213.053 43.7723 213.086 44.8501 213.269 45.7515C213.451 46.6529 213.769 47.3552 214.222 47.8584C214.679 48.3621 215.259 48.6464 215.961 48.7116Z" fill="black"/>
<path d="M228.264 51.4214C227.198 51.3226 226.318 50.9485 225.622 50.2991C224.926 49.645 224.432 48.7456 224.139 47.6009C223.846 46.4516 223.772 45.0895 223.918 43.5149C224.063 41.9496 224.385 40.6314 224.884 39.5601C225.388 38.4846 226.042 37.6893 226.846 37.1742C227.655 36.6548 228.587 36.4441 229.643 36.542C230.699 36.6399 231.575 37.0183 232.27 37.6771C232.97 38.3317 233.467 39.2336 233.759 40.383C234.057 41.5281 234.134 42.8833 233.989 44.4485C233.843 46.0232 233.52 47.3485 233.021 48.4245C232.522 49.4957 231.871 50.2888 231.067 50.804C230.264 51.3144 229.329 51.5202 228.264 51.4214ZM228.408 49.8655C229.464 49.9635 230.332 49.5303 231.011 48.5662C231.69 47.602 232.117 46.177 232.292 44.2912C232.408 43.0371 232.372 41.9568 232.185 41.0502C232.003 40.1441 231.684 39.4368 231.227 38.9285C230.774 38.4205 230.2 38.1342 229.502 38.0695C228.455 37.9725 227.589 38.4129 226.904 39.3908C226.22 40.3639 225.79 41.7911 225.616 43.6722C225.499 44.9263 225.533 46.0041 225.715 46.9055C225.898 47.8069 226.216 48.5092 226.668 49.0124C227.126 49.516 227.706 49.8004 228.408 49.8655Z" fill="black"/>
<path d="M240.71 52.5753C239.645 52.4766 238.764 52.1025 238.068 51.4531C237.373 50.7989 236.879 49.8996 236.585 48.7549C236.292 47.6055 236.219 46.2435 236.365 44.6688C236.51 43.1036 236.832 41.7853 237.331 40.7141C237.835 39.6386 238.489 38.8433 239.292 38.3282C240.101 37.8088 241.034 37.5981 242.09 37.696C243.146 37.7939 244.022 38.1723 244.717 38.8311C245.417 39.4856 245.913 40.3876 246.206 41.537C246.504 42.6821 246.581 44.0372 246.435 45.6025C246.289 47.1772 245.967 48.5025 245.468 49.5784C244.969 50.6496 244.318 51.4428 243.514 51.9579C242.71 52.4683 241.776 52.6741 240.71 52.5753ZM240.855 51.0195C241.911 51.1174 242.778 50.6843 243.457 49.7201C244.136 48.756 244.563 47.331 244.738 45.4451C244.854 44.191 244.819 43.1107 244.632 42.2042C244.45 41.2981 244.13 40.5908 243.673 40.0824C243.221 39.5745 242.646 39.2882 241.948 39.2235C240.902 39.1265 240.036 39.5669 239.351 40.5448C238.666 41.5179 238.237 42.945 238.062 44.8262C237.946 46.0803 237.979 47.158 238.162 48.0594C238.345 48.9608 238.662 49.6631 239.115 50.1663C239.572 50.67 240.152 50.9544 240.855 51.0195Z" fill="black"/>
<path d="M248.451 53.0933L248.569 51.8204L253.835 47.0304C254.453 46.4695 254.965 45.9796 255.37 45.5606C255.775 45.1369 256.083 44.7328 256.295 44.3483C256.512 43.9594 256.641 43.5434 256.682 43.1002C256.729 42.591 256.647 42.1389 256.437 41.7437C256.231 41.3489 255.927 41.0307 255.527 40.7891C255.126 40.5475 254.664 40.4024 254.14 40.3539C253.584 40.3023 253.088 40.3728 252.651 40.5653C252.22 40.7536 251.873 41.0423 251.608 41.4315C251.349 41.8212 251.193 42.2918 251.142 42.8434L249.473 42.6887C249.552 41.84 249.816 41.1133 250.267 40.5083C250.718 39.9034 251.297 39.4531 252.005 39.1573C252.717 38.8619 253.495 38.7533 254.339 38.8316C255.187 38.9103 255.923 39.1591 256.545 39.5782C257.167 39.9973 257.636 40.5282 257.952 41.1709C258.268 41.8136 258.392 42.5074 258.322 43.2523C258.273 43.7851 258.128 44.2971 257.888 44.7884C257.652 45.2753 257.27 45.8081 256.741 46.3868C256.217 46.9611 255.499 47.6553 254.586 48.4695L251.011 51.6473L251 51.7604L257.733 52.3846L257.588 53.9404L248.451 53.0933Z" fill="black"/>
<path d="M267.504 46.7712L267.36 48.3271L261.023 47.7396L261.168 46.1838L267.504 46.7712Z" fill="black"/>
<path d="M274.29 55.6886C273.319 55.5986 272.476 55.3469 271.763 54.9337C271.056 54.5162 270.522 53.9841 270.164 53.3374C269.806 52.6861 269.666 51.9693 269.743 51.1871C269.795 50.5738 269.968 50.0192 270.261 49.5233C270.554 49.0227 270.93 48.6176 271.386 48.3081C271.848 47.9943 272.347 47.8147 272.884 47.7693L272.892 47.6845C272.216 47.4411 271.7 47.001 271.345 46.3642C270.991 45.7227 270.852 45.0179 270.928 44.2499C270.992 43.5139 271.239 42.8735 271.67 42.3286C272.101 41.7837 272.662 41.3744 273.353 41.1009C274.048 40.8278 274.821 40.7306 275.669 40.8092C276.509 40.887 277.243 41.1239 277.872 41.5198C278.501 41.9158 278.977 42.4212 279.3 43.036C279.628 43.6514 279.761 44.327 279.697 45.0629C279.621 45.8309 279.348 46.4975 278.877 47.0625C278.411 47.6232 277.831 47.9617 277.135 48.0779L277.127 48.1627C277.642 48.3056 278.093 48.5732 278.479 48.9657C278.867 49.3535 279.161 49.8206 279.362 50.3671C279.564 50.9089 279.639 51.4865 279.587 52.0998C279.51 52.882 279.233 53.5601 278.756 54.1341C278.285 54.7038 277.663 55.1288 276.891 55.409C276.123 55.685 275.256 55.7782 274.29 55.6886ZM274.434 54.1328C275.089 54.1935 275.665 54.1399 276.161 53.9719C276.657 53.8039 277.052 53.5386 277.347 53.176C277.642 52.8135 277.816 52.3731 277.869 51.8549C277.915 51.3076 277.819 50.8112 277.579 50.3659C277.34 49.9205 276.991 49.5553 276.533 49.2702C276.079 48.9856 275.545 48.8149 274.932 48.7581C274.315 48.7008 273.752 48.7699 273.244 48.9653C272.741 49.1612 272.331 49.456 272.014 49.8498C271.701 50.2441 271.522 50.7149 271.476 51.2622C271.423 51.7804 271.506 52.2446 271.725 52.6548C271.949 53.0654 272.291 53.3991 272.752 53.6559C273.213 53.9126 273.774 54.0716 274.434 54.1328ZM275.071 47.2588C275.59 47.3069 276.059 47.2458 276.479 47.0755C276.904 46.9057 277.249 46.6452 277.515 46.2942C277.78 45.9432 277.938 45.518 277.99 45.0187C278.03 44.5279 277.954 44.0905 277.762 43.7065C277.569 43.3178 277.282 43.0059 276.9 42.7707C276.518 42.5308 276.06 42.3862 275.528 42.3368C274.986 42.2865 274.502 42.3439 274.078 42.5091C273.654 42.6695 273.314 42.9233 273.059 43.2705C272.804 43.613 272.656 44.0296 272.615 44.5204C272.564 45.0197 272.634 45.4661 272.826 45.8595C273.022 46.2534 273.314 46.5728 273.7 46.8179C274.086 47.0629 274.543 47.2099 275.071 47.2588Z" fill="black"/>
<path d="M286.816 56.8499C285.882 56.7634 285.065 56.526 284.364 56.1376C283.668 55.7497 283.132 55.2506 282.755 54.6404C282.384 54.0258 282.215 53.3373 282.248 52.5748L284.03 52.74C284.025 53.2102 284.147 53.6282 284.399 53.9939C284.651 54.3548 284.997 54.6485 285.437 54.8747C285.877 55.101 286.376 55.2399 286.932 55.2915C287.554 55.3492 288.116 55.2919 288.617 55.1196C289.118 54.9473 289.523 54.6806 289.832 54.3193C290.142 53.9581 290.32 53.5228 290.367 53.0137C290.417 52.4809 290.328 51.9996 290.102 51.5696C289.876 51.135 289.519 50.7785 289.031 50.5003C288.543 50.2221 287.932 50.0489 287.196 49.9807L286.036 49.8732L286.181 48.3173L287.34 48.4249C287.916 48.4782 288.43 48.4213 288.883 48.254C289.34 48.0872 289.709 47.8266 289.989 47.4722C290.274 47.1182 290.44 46.6866 290.487 46.1774C290.533 45.6871 290.464 45.2503 290.281 44.8672C290.098 44.4841 289.817 44.1728 289.44 43.9333C289.068 43.6943 288.615 43.5501 288.082 43.5007C287.582 43.4544 287.102 43.5026 286.642 43.6454C286.187 43.7839 285.805 44.0124 285.495 44.3307C285.185 44.6444 284.996 45.0406 284.928 45.5193L283.231 45.3619C283.329 44.6055 283.62 43.9619 284.101 43.4312C284.584 42.8958 285.186 42.5 285.909 42.2436C286.637 41.9877 287.418 41.8985 288.252 41.9758C289.148 42.0589 289.9 42.3116 290.507 42.7341C291.115 43.1519 291.564 43.6714 291.853 44.2926C292.143 44.9138 292.256 45.5663 292.193 46.2499C292.117 47.0655 291.838 47.741 291.356 48.2764C290.878 48.8123 290.263 49.1571 289.512 49.311L289.502 49.4241C290.402 49.6598 291.08 50.115 291.536 50.7897C291.992 51.4596 292.178 52.2543 292.093 53.1736C292.02 53.961 291.74 54.6483 291.252 55.2356C290.77 55.8186 290.145 56.2551 289.376 56.5452C288.608 56.8354 287.754 56.9369 286.816 56.8499Z" fill="black"/>
</g>
</svg>
