<svg width="161" height="55" viewBox="0 0 161 55" fill="none" xmlns="http://www.w3.org/2000/svg">
<g clip-path="url(#clip0_142_12)">
<path d="M153.142 40.102C147.494 40.5752 141.849 41.07 136.201 41.535C135.839 41.565 135.234 41.9233 135.229 41.0892C136.351 38.4532 137.17 35.7103 138.015 32.9787C138.445 31.5867 138.818 30.121 139.823 29.0518C140.694 28.1303 140.838 27.2142 140.514 26.0903C140.416 25.7485 140.471 25.2372 140.046 25.2017C139.504 25.1578 139.654 25.6993 139.616 26.022C139.553 26.5388 139.341 26.9818 139.044 27.3892C138.156 28.617 137.557 29.9815 137.102 31.4198C136.116 34.5373 135.12 37.6518 134.128 40.7693C133.962 41.2943 133.84 41.8002 133.11 41.8248C131.988 41.8603 130.871 41.9725 129.61 42.0627C129.954 40.9115 130.264 39.886 130.566 38.8552C131.538 35.5382 132.484 32.213 134.815 29.5112C135.337 28.9068 135.215 27.1485 134.736 26.4458C132.813 29.358 131.043 32.3415 130.114 35.7542C129.589 37.682 128.998 39.5907 128.42 41.5048C128.322 41.8248 128.309 42.2923 127.772 42.194C127.184 42.0847 127.601 41.7018 127.617 41.4557C127.655 40.8732 127.424 40.3947 127.127 39.927C124.831 36.3147 122.388 32.8337 119.199 29.9213C115.106 26.186 110.706 22.9893 105.344 21.3377C103.873 20.6213 102.291 20.3313 100.695 20.0962C95.4635 19.1227 90.1778 18.7973 84.8674 18.8165C84.203 18.8165 83.7836 18.841 84.2465 17.9633C85.442 15.6991 86.1909 13.2654 86.6784 10.7551C87.2366 7.89202 87.6587 5.00162 87.2039 2.09207C86.869 -0.0435942 85.4611 -0.628784 83.8516 0.730277C81.0821 3.07103 78.2309 5.3653 75.7717 8.01507C72.8769 11.1324 70.3034 14.5643 68.31 18.3762C68.0486 18.8767 67.7681 19.2403 67.1063 19.2895C65.4833 19.4043 63.8548 19.552 62.2481 19.8092C61.2242 19.9732 61.1342 19.6177 61.2867 18.7453C61.8587 15.4776 62.3624 12.1962 62.9289 8.92567C63.0514 8.21195 63.2557 7.53927 62.2863 7.3205C61.2404 7.08533 61.3712 8.026 61.2487 8.52643C60.4072 11.9719 59.5874 15.4229 58.8657 18.893C58.6642 19.872 58.3021 20.2302 57.308 20.3478C51.2788 21.0642 45.413 22.5983 39.577 24.2117C36.7121 25.002 36.7475 25.1058 34.9066 22.6748C33.9997 21.4772 33.0248 20.3368 31.9246 19.3142C30.4486 17.9413 28.8393 16.7738 26.854 16.2487C21.4102 14.8131 16.1216 15.6745 11.0618 17.7445C8.35759 18.852 5.90121 20.6075 3.73079 22.6202C2.41273 23.8425 0.618101 24.745 0.345775 26.8478C0.168763 28.2013 -0.0790531 29.5495 0.0244306 30.9222C0.904042 42.5303 8.12066 52.3527 22.298 52.8067C30.179 53.061 37.7606 51.3163 45.1432 48.6885C46.8888 48.0677 48.3403 47.8982 49.8355 49.301C50.952 50.3483 51.9514 50.1623 53.0679 49.0905C53.3539 48.817 53.5391 48.456 54.0457 48.4643C56.1316 48.4943 58.2176 48.4642 60.3036 48.4998C60.8374 48.508 61.2378 48.631 61.3657 49.4022C61.7279 51.5625 63.6778 52.7 65.8155 52.1942C68.2555 51.6172 70.3389 50.3647 72.2669 48.8197C72.7571 48.426 73.25 48.24 73.8681 48.21C76.9482 48.0623 80.0255 47.8845 83.1055 47.7232C83.5358 47.7013 83.9361 47.5537 84.1185 48.2537C84.4399 49.4815 85.4774 49.6045 86.5259 49.4268C87.6262 49.2437 88.5711 48.6638 89.3826 47.9283C89.9572 47.4087 90.5672 47.1627 91.327 47.108C100.055 46.468 108.718 45.1965 117.432 44.4198C117.821 44.3843 118.227 44.2367 118.614 44.5238C121.01 46.3203 123.306 45.623 125.526 44.1655C126.231 43.7007 126.895 43.378 127.772 43.6678C127.669 44.0672 127.582 44.4198 127.489 44.7727C126.743 47.5892 126.179 50.4413 125.716 53.3153C125.664 53.638 125.438 54.1055 125.997 54.1903C126.386 54.2505 126.484 53.8567 126.58 53.5532C126.686 53.206 126.778 52.8532 126.868 52.5003C127.56 49.7713 128.241 47.0368 128.949 44.3132C129.066 43.8675 129.044 43.2522 129.766 43.244C130.937 43.2303 132.089 42.864 133.35 43.0117C132.484 46.1727 131.127 49.115 129.916 52.3992C130.615 51.9945 130.817 51.5953 131.062 51.2152C132.75 48.59 133.516 45.5628 134.749 42.7382C137.053 42.5467 139.36 42.3745 141.661 42.1557C147.211 41.628 152.764 41.1138 158.303 40.4932C159.071 40.4057 160.125 40.5943 160.71 39.5223C158.118 39.7192 155.634 39.8915 153.153 40.0993L153.142 40.102ZM77 8.99677C79.2439 6.69155 81.5722 4.49025 83.9361 2.31903C84.2684 2.0155 84.5897 1.67095 84.9763 1.45766C85.9785 0.908022 86.5476 1.20882 86.5994 2.3628C86.7519 5.78642 86.5013 9.18272 85.4039 12.4505C84.7721 14.3346 83.9524 16.1558 83.2226 18.007C83.0075 18.554 82.7024 18.8985 82.0325 18.904C78.0457 18.9423 74.0615 19.0188 70.0747 19.0735C69.9985 19.0735 69.9221 18.997 69.6826 18.8685C71.8176 15.278 74.1242 11.9446 77 8.99403V8.99677ZM68.5496 21.1792C68.7838 20.7197 68.9908 20.3587 69.6199 20.326C73.6422 20.1017 77.6671 20.0087 81.9427 19.9923C76.9809 27.8022 69.944 33.0935 62.5176 38.4942C62.9643 35.478 63.7459 32.8775 64.601 30.2933C65.644 27.1348 67.0382 24.1323 68.5525 21.1818L68.5496 21.1792ZM36.3689 50.2062C31.3582 51.3137 26.3283 51.9698 21.176 51.7293C6.23618 51.0292 0.0135376 37.6847 1.93343 26.9982C2.45085 24.116 4.52598 22.1908 6.94967 20.892C11.5057 18.45 16.3994 17.028 21.609 16.8805C23.2456 16.834 24.8687 16.8722 26.4835 17.1703C29.5445 17.7363 31.5842 19.7845 33.4606 22.046C34.125 22.8472 34.6751 23.7442 35.3178 24.5645C35.8353 25.2262 35.6827 25.5243 34.9121 25.8005C32.1016 26.8177 29.3457 27.9717 26.7205 29.4073C24.4113 30.6707 22.1426 31.9968 20.3018 33.9357C18.0033 36.3557 17.9925 38.7677 20.3536 41.0865C23.093 43.7773 26.568 45.0462 30.179 46.0058C34.0025 47.0232 37.9294 47.324 41.8537 47.6603C42.5236 47.7177 43.1908 47.8052 44.2637 47.9255C41.4288 48.9647 38.9233 49.6373 36.3717 50.2033L36.3689 50.2062ZM47.2402 46.6403C46.976 47.149 46.3361 46.6868 45.8596 46.8098C39.6887 46.3697 33.4905 46.0223 27.5293 44.1218C25.3753 43.4355 23.2919 42.5248 21.579 40.9798C19.3514 38.97 19.3241 36.9137 21.421 34.7615C23.9019 32.2157 26.9574 30.5422 30.1327 29.0847C31.9382 28.256 33.8336 27.619 35.6663 26.845C36.3336 26.5633 36.6849 26.6782 37.0717 27.3182C39.8112 31.841 42.2185 36.5308 44.3917 41.349C45.0207 42.7408 45.9195 44.007 46.6766 45.3413C46.9162 45.7598 47.4744 46.1837 47.2376 46.6375L47.2402 46.6403ZM49.9307 46.7935C51.0392 46.2657 51.9896 45.8118 52.9672 45.3468C53.0925 47.1845 52.6377 47.3732 49.9307 46.7935ZM53.7679 43.5147C53.6807 43.914 53.2804 44.0262 52.959 44.1847C52.1094 44.6085 51.2652 45.0515 50.3965 45.4372C48.1226 46.4488 48.5664 46.5037 47.4281 44.5265C44.0921 38.7238 41.2109 32.6668 37.7115 26.9545C37.1777 26.0822 37.8831 26.0412 38.3489 25.8988C41.6276 24.9035 44.9336 24.0093 48.2723 23.23C51.1889 22.5492 54.1465 22.1553 57.0929 21.6905C57.9318 21.5592 58.2531 21.6248 58.0788 22.7022C57.1992 28.133 55.5108 33.2793 52.9755 38.1468C52.7031 38.6692 52.5778 39.3528 51.8589 39.5962C51.2407 39.8067 51.3442 40.2688 51.6709 40.679C52.0113 41.1112 52.4716 41.3873 52.9428 40.9307C53.4439 40.4438 53.8495 39.856 54.2962 39.3118C54.5194 40.8403 54.0593 42.1638 53.7679 43.512V43.5147ZM59.8789 47.3293C58.0461 47.19 56.1943 47.2912 54.3451 47.2912C54.4241 45.0297 55.4101 43.7088 57.3762 42.9268C58.5608 42.4565 59.5848 41.5787 60.99 40.69C60.6359 42.7873 60.9463 44.4828 61.0198 46.1863C61.0525 46.9357 60.9164 47.4087 59.8815 47.3293H59.8789ZM61.1888 38.8497C61.1261 39.2433 60.9763 39.5197 60.6386 39.722C58.9801 40.7228 57.3271 41.7318 55.3201 42.9515C55.8866 40.4302 56.4557 38.3082 56.8288 36.1507C57.643 31.4418 59.0701 26.9025 60.4099 22.3358C60.6495 21.5237 60.9491 21.1272 61.8423 21.078C63.5308 20.985 65.211 20.7635 67.139 20.5693C64.1326 26.6127 62.1827 32.5793 61.1888 38.8523V38.8497ZM63.9419 51.2152C62.5912 50.8925 62.8337 49.5307 62.1908 48.4505H70.407C69.4401 49.9573 65.6521 51.6227 63.9419 51.2152ZM85.088 36.0167C84.802 39.1805 84.4399 42.3388 84.1403 45.5C84.094 46.0005 84.0858 46.334 83.435 46.3668C80.5647 46.5063 77.6945 46.695 74.421 46.8918C79.056 42.3335 82.1361 37.1378 85.118 31.4308C85.4883 33.2548 85.2133 34.6412 85.088 36.0167ZM87.5226 47.6712C86.9153 48.0403 86.2943 48.3685 85.5564 48.0868C85.4938 48.0623 85.4447 47.7833 85.4774 47.7642C86.1093 47.3787 86.8281 47.5153 87.5799 47.4005C87.5417 47.5865 87.5472 47.6522 87.5226 47.6685V47.6712ZM101.575 44.6605C98.372 45.2867 95.115 45.3715 91.6211 45.7462C94.6358 41.8658 96.6237 37.6465 98.53 33.3615C98.5954 35.087 98.1514 36.7248 97.92 38.3875C97.7375 39.6918 97.5224 40.9908 97.3617 42.2952C97.1303 44.1683 97.7785 44.8 99.6437 44.5703C99.9106 44.5375 100.172 44.4663 100.436 44.4117C103.976 42.8283 105.679 39.6125 107.492 36.2463C108.048 38.9398 107.154 41.9013 110.049 43.8675C107.081 44.1437 104.33 44.4007 101.577 44.6578L101.575 44.6605ZM115.539 43.3343C114.507 43.4327 113.475 43.5285 112.375 43.523C114.033 42.4893 115.232 41.0537 116.326 39.1778C116.547 40.1567 116.667 40.8267 116.852 41.4775C117.337 43.162 117.348 43.1593 115.539 43.3343ZM121.601 44.0207C122.413 43.769 123.023 43.7553 123.976 43.8593C123.045 44.2968 122.47 44.5977 121.601 44.0207ZM124.684 42.5085C123.015 42.667 121.343 42.7983 119.673 42.9788C118.971 43.0553 118.609 42.8092 118.382 42.1283C117.642 39.9078 117.639 37.6602 117.99 35.385C118.053 34.9803 118.175 34.581 118.2 34.1763C118.227 33.736 118.031 33.345 117.576 33.2383C117.051 33.1127 116.852 33.4982 116.76 33.9302C116.64 34.5072 116.558 35.0923 116.438 35.6693C115.899 38.2672 114.649 40.4438 112.438 41.9342C110.7 43.1073 109.744 42.6233 109.325 40.5723C109.047 39.2188 109.11 37.8543 109.091 36.4897C109.08 35.6257 109.099 34.7588 109.069 33.8947C109.05 33.293 108.764 32.7872 108.157 32.6942C107.588 32.6067 107.449 33.1837 107.269 33.5775C106.487 35.3167 105.76 37.0832 104.742 38.7047C103.666 40.4165 102.419 41.9725 100.581 42.9187C100.109 43.162 99.4914 43.4873 99.0283 43.1893C98.5191 42.8585 98.8296 42.1885 98.884 41.6772C99.219 38.5105 100.077 35.415 100.213 32.2238C100.248 31.3625 100.589 30.1292 99.415 29.916C98.3529 29.7245 98.2249 30.9852 97.92 31.7207C96.2451 35.7542 94.5131 39.7412 91.9697 43.337C90.717 45.109 89.388 46.2712 87.0107 46.1837C85.6898 46.1345 85.3249 46.0087 85.442 44.6387C85.7471 41.1002 86.2917 37.5918 86.7002 34.067C86.8119 33.1127 86.8608 32.1555 86.7138 31.2093C86.6104 30.553 86.2535 30.0117 85.5591 29.8285C84.8593 29.6425 84.4208 30.091 84.1104 30.6023C83.3505 31.841 82.6045 33.088 81.9291 34.3732C79.7232 38.5898 77.0081 42.4318 73.7129 45.8665C72.9722 46.6375 72.2015 47.0313 71.1122 47.0287C68.5279 47.0232 65.9408 47.0697 63.3591 47.2008C62.308 47.2555 61.9566 46.84 61.9812 45.891C61.9838 45.7543 61.9812 45.6177 61.9649 45.4808C61.6217 42.0983 62.2617 39.5223 65.5841 37.4305C71.2294 33.8755 76.2838 29.451 80.4041 24.0913C81.0413 23.2628 81.7928 22.4698 82.1986 21.5318C82.8167 20.0962 83.8108 19.883 85.2024 19.924C90.3685 20.0662 95.5426 19.995 100.66 20.8838L101.33 21.0533C102.465 21.3405 103.601 21.6275 104.736 21.9147C104.736 21.9202 104.739 21.9283 104.742 21.9338C104.755 21.9338 104.769 21.9283 104.785 21.9257C114.224 25.1633 120.918 31.614 125.869 40.0965C126.776 41.6525 126.424 42.3417 124.681 42.5085H124.684Z" fill="#003D7E"/>
</g>
<defs>
<clipPath id="clip0_142_12">
<rect width="161" height="55" fill="white"/>
</clipPath>
</defs>
</svg>
