<svg width="144" height="39" viewBox="0 0 144 39" fill="none" xmlns="http://www.w3.org/2000/svg">
<path d="M44.2207 16.8063V10.5505H46.8541C47.5336 10.5505 48.0653 10.6875 48.4511 10.9614C48.8349 11.2353 49.0288 11.6309 49.0288 12.1501C49.0288 12.4906 48.9482 12.7759 48.785 13.008C48.6219 13.24 48.3992 13.415 48.1132 13.531C47.8273 13.647 47.5067 13.706 47.1516 13.706L47.3148 13.5272C47.7486 13.5272 48.1171 13.59 48.4242 13.7155C48.7313 13.841 48.9635 14.0217 49.1228 14.2614C49.2822 14.4991 49.3628 14.7977 49.3628 15.1553C49.3628 15.6803 49.1708 16.0873 48.785 16.3764C48.3992 16.6655 47.8177 16.8101 47.0346 16.8101H44.2207V16.8063ZM44.6814 16.4126H47.0365C47.643 16.4126 48.1075 16.3099 48.4261 16.1044C48.7447 15.899 48.904 15.57 48.904 15.1173C48.904 14.6646 48.7447 14.3432 48.4261 14.1377C48.1075 13.9323 47.6449 13.8296 47.0365 13.8296H44.6276V13.4359H46.8388C47.3858 13.4359 47.81 13.3313 48.1113 13.124C48.4127 12.9148 48.5624 12.6028 48.5624 12.1844C48.5624 11.7659 48.4127 11.4635 48.1113 11.2543C47.81 11.0451 47.3858 10.9405 46.8388 10.9405H44.6833V16.4107L44.6814 16.4126Z" fill="white"/>
<path d="M51.4645 16.8063L54.3705 10.5505H54.8311L57.7351 16.8082H57.2399L54.4971 10.8358H54.6948L51.9616 16.8082H51.4664L51.4645 16.8063ZM52.5298 15.045L52.6833 14.6608H56.4626L56.6161 15.045H52.5298Z" fill="white"/>
<path d="M60.3954 16.8063V10.5505H60.7831L65.2841 16.2452H65.0768V10.5505H65.5374V16.8082H65.1593L60.6487 11.1135H60.856V16.8082H60.3954V16.8063Z" fill="white"/>
<path d="M71.9252 16.8519C71.4568 16.8519 71.0211 16.772 70.6219 16.6142C70.2227 16.4563 69.8753 16.2338 69.5797 15.9485C69.2841 15.6632 69.0557 15.3265 68.8945 14.9423C68.7313 14.5581 68.6507 14.1358 68.6507 13.6775C68.6507 13.2191 68.7313 12.7968 68.8945 12.4126C69.0576 12.0284 69.286 11.6937 69.5854 11.4064C69.8829 11.1211 70.2303 10.8986 70.6277 10.7407C71.025 10.5829 71.4568 10.503 71.9271 10.503C72.3724 10.503 72.7889 10.5753 73.1766 10.7179C73.5643 10.8606 73.8964 11.0793 74.1728 11.3703L73.8849 11.6651C73.6142 11.4026 73.3148 11.2143 72.9866 11.0983C72.6584 10.9823 72.311 10.9233 71.9444 10.9233C71.5413 10.9233 71.167 10.9918 70.8215 11.1288C70.476 11.2657 70.1747 11.4597 69.9194 11.7108C69.6641 11.9618 69.4645 12.2528 69.3244 12.5876C69.1824 12.9224 69.1133 13.2856 69.1133 13.6775C69.1133 14.0693 69.1843 14.4345 69.3244 14.7673C69.4664 15.1002 69.6641 15.3931 69.9194 15.6441C70.1747 15.8952 70.476 16.0873 70.8215 16.2262C71.167 16.3631 71.5413 16.4316 71.9444 16.4316C72.311 16.4316 72.6584 16.3726 72.9866 16.2566C73.3148 16.1406 73.6142 15.9485 73.8849 15.6803L74.1728 15.9751C73.8964 16.268 73.5643 16.4867 73.1766 16.6332C72.7889 16.7796 72.3724 16.8519 71.9271 16.8519H71.9252Z" fill="white"/>
<path d="M79.7735 16.8519C79.3052 16.8519 78.8695 16.772 78.4702 16.6142C78.071 16.4563 77.7217 16.2338 77.4242 15.9447C77.1267 15.6556 76.8963 15.3189 76.7332 14.9347C76.5701 14.5505 76.4894 14.132 76.4894 13.6794C76.4894 13.2267 76.5701 12.8082 76.7332 12.424C76.8963 12.0398 77.1248 11.7032 77.4242 11.4141C77.7217 11.125 78.071 10.9024 78.4702 10.7427C78.8695 10.5848 79.3052 10.5049 79.7735 10.5049C80.2418 10.5049 80.6775 10.5848 81.0768 10.7427C81.476 10.9005 81.8234 11.1231 82.119 11.4084C82.4146 11.6937 82.643 12.0303 82.81 12.4145C82.975 12.7987 83.0576 13.221 83.0576 13.6794C83.0576 14.1378 82.975 14.56 82.81 14.9442C82.6449 15.3284 82.4146 15.6632 82.119 15.9504C81.8234 16.2357 81.4779 16.4582 81.0768 16.6161C80.6775 16.7739 80.2418 16.8538 79.7735 16.8538V16.8519ZM79.7735 16.4316C80.1766 16.4316 80.5489 16.3631 80.8925 16.2262C81.2361 16.0892 81.5336 15.8952 81.785 15.6441C82.0384 15.3931 82.2342 15.1021 82.3762 14.7673C82.5182 14.4345 82.5873 14.0693 82.5873 13.6775C82.5873 13.2856 82.5163 12.9129 82.3762 12.5819C82.2342 12.2509 82.0384 11.9599 81.785 11.7108C81.5317 11.4597 81.2342 11.2676 80.8925 11.1288C80.5489 10.9918 80.1766 10.9233 79.7735 10.9233C79.3704 10.9233 78.9981 10.9918 78.6545 11.1288C78.3109 11.2657 78.0115 11.4597 77.7562 11.7108C77.501 11.9618 77.3013 12.2509 77.1612 12.5819C77.0192 12.9129 76.9501 13.278 76.9501 13.6775C76.9501 14.0769 77.0211 14.4345 77.1612 14.7673C77.3033 15.1002 77.501 15.3931 77.7562 15.6441C78.0115 15.8952 78.3109 16.0873 78.6545 16.2262C78.9981 16.365 79.3704 16.4316 79.7735 16.4316Z" fill="white"/>
<path d="M65.2591 20.6426C63.0192 25.3977 60.7812 30.1527 58.5413 34.9078C56.3666 30.09 54.19 25.2703 52.0154 20.4524H51.6315C49.1363 25.8409 46.6411 31.2312 44.1459 36.6196H46.0653L51.8234 24.0663C53.8061 28.2507 55.7908 32.4352 57.7735 36.6196H59.8848C61.7409 32.3724 63.595 28.1233 65.4511 23.8761C67.3704 28.1233 69.2898 32.3724 71.2092 36.6196C71.7466 36.612 72.2841 36.6025 72.8215 36.5949C70.428 31.2768 68.0345 25.9607 65.643 20.6426H65.2591Z" fill="white"/>
<path d="M74.9636 36.5949H76.7774C77.6238 34.8393 78.4684 33.0723 79.311 31.292C79.5778 30.729 79.8388 30.1699 80.1037 29.6088C80.0864 29.6506 80.071 29.6943 80.0538 29.7362L82.8177 23.9503C83.9847 26.3982 85.1497 28.846 86.3167 31.292L88.8753 36.5949H90.6315L83.0461 20.4772C80.3513 25.8504 77.6584 31.2217 74.9636 36.5949Z" fill="white"/>
<path d="M98.4607 27.4899C97.2745 26.6207 96.5739 26.0843 96.3589 25.8789C95.9674 25.4909 95.6987 25.1333 95.5509 24.8062C95.4031 24.4771 95.3301 24.1386 95.3301 23.7867C95.3301 23.2104 95.5374 22.7235 95.9539 22.3297C96.3704 21.936 96.9059 21.7382 97.5624 21.7382C98.071 21.7382 98.5413 21.8656 98.9712 22.1224C99.4031 22.3773 99.9232 22.908 100.536 23.7106L101.862 22.7139C101.117 21.7059 100.411 21.0135 99.7447 20.6369C99.0768 20.2603 98.3608 20.072 97.595 20.072C96.8733 20.072 96.2035 20.2375 95.5873 20.5704C94.9712 20.9032 94.4952 21.3578 94.1555 21.9341C93.8157 22.5104 93.6468 23.1495 93.6468 23.8514C93.6468 24.7358 93.9347 25.5575 94.5086 26.3164C94.8407 26.769 95.6833 27.5032 97.0403 28.5189C98.3896 29.527 99.3186 30.3886 99.8272 31.1037C100.196 31.623 100.38 32.1518 100.38 32.6919C100.38 33.1674 100.255 33.6163 100.004 34.0405C99.7524 34.4646 99.3877 34.8013 98.9098 35.0542C98.4299 35.3053 97.9175 35.4327 97.3724 35.4327C96.0979 35.4327 94.9731 34.5445 94 32.7699L92.618 33.5916C93.2956 34.8184 94.0365 35.6933 94.8407 36.2164C95.6449 36.7375 96.5393 37 97.5278 37C98.81 37 99.9002 36.5682 100.795 35.7066C101.691 34.845 102.138 33.8293 102.138 32.6615C102.138 31.8512 101.877 31.0429 101.353 30.2402C100.829 29.4376 99.8637 28.5208 98.4568 27.4899H98.4607Z" fill="white"/>
<path d="M106.271 22.0558H109.898V36.5949H111.557V22.0558H115.182V20.4772H106.271V22.0558Z" fill="white"/>
<path d="M119.265 36.5949H128.52V35.0162H120.891V28.6844H128.52V27.1057H120.891V22.0558H128.585V20.4772H119.265V36.5949Z" fill="white"/>
<path d="M138.15 29.1104C139.513 29.1028 140.582 28.9297 141.357 28.5893C142.131 28.2488 142.726 27.7467 143.142 27.081C143.559 26.4153 143.766 25.6431 143.766 24.7662C143.766 23.7125 143.463 22.8262 142.86 22.1053C142.255 21.3844 141.47 20.9146 140.505 20.6959C139.864 20.5494 138.639 20.4772 136.833 20.4772H133.593V36.5949H135.219V29.1123H136.138L141.989 36.5949H144L138.152 29.1123L138.15 29.1104ZM135.219 27.5318V22.0539H138.086C139.202 22.0539 139.998 22.149 140.478 22.3392C140.958 22.5294 141.346 22.8452 141.641 23.2865C141.937 23.7277 142.085 24.2203 142.085 24.7605C142.085 25.3007 141.939 25.818 141.647 26.2669C141.355 26.7158 140.948 27.0429 140.428 27.2484C139.908 27.4538 139.106 27.5546 138.019 27.5546L135.217 27.5318H135.219Z" fill="white"/>
<rect y="4" width="34.5489" height="32.5245" rx="2" fill="url(#paint0_linear_203_7)"/>
<path d="M26.2956 13.9856H23.6085C21.5605 18.8034 19.5144 23.6231 17.4664 28.4409C15.0998 24.0663 12.7313 19.6916 10.3647 15.317H9.59694C6.9098 20.325 4.22266 25.3349 1.53552 30.3429H3.84646C5.89061 26.5389 7.93475 22.7349 9.98082 18.9308C12.1555 22.7349 14.3321 26.5389 16.5067 30.3429H18.6181C20.7294 25.2703 22.8407 20.1995 24.952 15.1268C27.0634 20.1995 29.1747 25.2703 31.286 30.3429C31.9904 30.3353 32.6929 30.3258 33.3973 30.3182C31.0307 24.8746 28.6622 19.4292 26.2956 13.9856Z" fill="#A4A4A3"/>
<path d="M25.3359 10.3718H24.7601C24.4395 11.1326 24.1209 11.8934 23.8004 12.6542H26.1036C25.8484 11.8934 25.5912 11.1326 25.3359 10.3718Z" fill="#A4A4A3"/>
<defs>
<linearGradient id="paint0_linear_203_7" x1="0" y1="20.1671" x2="34.5489" y2="20.1671" gradientUnits="userSpaceOnUse">
<stop stop-color="#041533"/>
<stop offset="1" stop-color="#043C73"/>
</linearGradient>
</defs>
</svg>
