<svg width="792" height="1121" viewBox="0 0 792 1121" fill="none" xmlns="http://www.w3.org/2000/svg">
<rect width="792" height="1120" transform="translate(0 0.679993)" fill="white"/>
<path d="M736.544 46.2426V1053.07H56.9994V46.2426H736.544ZM59.663 1050.41H733.881V48.9031H59.663V1050.41Z" fill="#002D5E"/>
<rect x="359" y="92" width="73.599" height="70" rx="5" fill="url(#paint0_linear_134_112)"/>
<path d="M415.017 113.491H409.293C404.93 123.86 400.571 134.233 396.208 144.602C391.167 135.187 386.121 125.772 381.08 116.357H379.444C373.72 127.135 367.995 137.918 362.271 148.696H367.194C371.549 140.509 375.903 132.322 380.262 124.135C384.895 132.322 389.531 140.509 394.164 148.696H398.662C403.159 137.778 407.657 126.865 412.155 115.947C416.653 126.865 421.15 137.778 425.648 148.696C427.149 148.68 428.645 148.659 430.146 148.643C425.104 136.927 420.059 125.207 415.017 113.491Z" fill="#A4A4A3"/>
<path d="M412.973 105.714H411.746C411.063 107.351 410.384 108.988 409.702 110.626H414.608C414.064 108.988 413.516 107.351 412.973 105.714Z" fill="#A4A4A3"/>
<rect x="688" y="1019.56" width="23.599" height="22.445" rx="2" fill="url(#paint1_linear_134_112)"/>
<path d="M705.961 1026.45H704.126C702.727 1029.77 701.329 1033.1 699.931 1036.42C698.314 1033.4 696.696 1030.38 695.08 1027.36H694.555C692.72 1030.82 690.884 1034.28 689.049 1037.73H690.627C692.024 1035.11 693.42 1032.48 694.817 1029.86C696.303 1032.48 697.79 1035.11 699.275 1037.73H700.717C702.159 1034.23 703.602 1030.73 705.044 1027.23C706.486 1030.73 707.928 1034.23 709.37 1037.73C709.851 1037.73 710.331 1037.72 710.812 1037.72C709.196 1033.96 707.578 1030.2 705.961 1026.45Z" fill="#A4A4A3"/>
<path d="M705.306 1023.95H704.913C704.694 1024.48 704.476 1025 704.257 1025.53H705.83C705.656 1025 705.48 1024.48 705.306 1023.95Z" fill="#A4A4A3"/>
<defs>
<linearGradient id="paint0_linear_134_112" x1="359" y1="126.795" x2="432.599" y2="126.795" gradientUnits="userSpaceOnUse">
<stop stop-color="#041533"/>
<stop offset="1" stop-color="#043C73"/>
</linearGradient>
<linearGradient id="paint1_linear_134_112" x1="688" y1="1030.71" x2="711.599" y2="1030.71" gradientUnits="userSpaceOnUse">
<stop stop-color="#041533"/>
<stop offset="1" stop-color="#043C73"/>
</linearGradient>
</defs>
</svg>
