<svg width="792" height="1120" viewBox="0 0 792 1120" fill="none" xmlns="http://www.w3.org/2000/svg">
<g clip-path="url(#clip0_153_8740)">
<rect width="792" height="1120" fill="white"/>
<g clip-path="url(#clip1_153_8740)">
<path d="M0 662.861L282.249 0H792V1120H0V662.861Z" fill="#F4F8FF"/>
<path d="M464.261 1120L738.875 478.443H792V1120H464.261Z" fill="#EFF5FF"/>
<path d="M489.48 278.323L618.035 0H792V278.323H489.48Z" fill="#EEF4FF"/>
<path d="M236.001 1120L426.845 676.314H792V1062.82C783.78 1081.88 775.573 1100.94 767.353 1120H236.001Z" fill="#EFF5FF"/>
<path d="M333.073 846.427C293.608 937.618 254.131 1028.81 214.666 1120H162.792L294.992 808.303H370.462L503.792 1120H451.771C412.214 1028.81 372.643 937.618 333.086 846.427H333.073Z" fill="#7094CF" fill-opacity="0.05"/>
<path d="M302.214 768.357L329.282 709.355H340.734L367.629 768.357H302.214Z" fill="#7094CF" fill-opacity="0.05"/>
<path d="M69.2987 1120L0 989.395V1098.23L11.532 1120H69.2987Z" fill="#7094CF" fill-opacity="0.05"/>
<path d="M792 1062.82C783.78 1081.88 775.574 1100.94 767.354 1120H464.261L654.178 676.314H792V1062.82Z" fill="#E5EFFF"/>
</g>
<path d="M736.544 45.5626V1052.39H56.9994V45.5626H736.544ZM59.663 1049.73H733.881V48.2231H59.663V1049.73Z" fill="#00305B"/>
<rect x="359" y="91.32" width="73.599" height="70" rx="5" fill="url(#paint0_linear_153_8740)"/>
<path d="M415.017 112.811H409.293C404.93 123.18 400.571 133.553 396.208 143.922C391.167 134.507 386.121 125.092 381.08 115.677H379.444C373.72 126.455 367.995 137.238 362.271 148.016H367.194C371.549 139.829 375.903 131.642 380.262 123.455C384.895 131.642 389.531 139.829 394.164 148.016H398.662C403.159 137.098 407.657 126.185 412.155 115.267C416.653 126.185 421.15 137.098 425.648 148.016C427.149 148 428.645 147.979 430.146 147.963C425.104 136.247 420.059 124.527 415.017 112.811Z" fill="#A4A4A3"/>
<path d="M412.973 105.034H411.746C411.063 106.671 410.384 108.308 409.702 109.946H414.608C414.064 108.308 413.516 106.671 412.973 105.034Z" fill="#A4A4A3"/>
<rect x="688" y="1018.88" width="23.599" height="22.445" rx="2" fill="url(#paint1_linear_153_8740)"/>
<path d="M705.961 1025.77H704.126C702.727 1029.09 701.329 1032.42 699.931 1035.74C698.314 1032.72 696.696 1029.7 695.08 1026.68H694.555C692.72 1030.14 690.884 1033.6 689.049 1037.05H690.627C692.024 1034.43 693.42 1031.8 694.817 1029.18C696.303 1031.8 697.79 1034.43 699.275 1037.05H700.717C702.159 1033.55 703.602 1030.05 705.044 1026.55C706.486 1030.05 707.928 1033.55 709.37 1037.05C709.851 1037.05 710.331 1037.04 710.812 1037.04C709.196 1033.28 707.578 1029.52 705.961 1025.77Z" fill="#A4A4A3"/>
<path d="M705.306 1023.27H704.913C704.694 1023.8 704.476 1024.32 704.257 1024.85H705.83C705.656 1024.32 705.48 1023.8 705.306 1023.27Z" fill="#A4A4A3"/>
</g>
<defs>
<linearGradient id="paint0_linear_153_8740" x1="359" y1="126.115" x2="432.599" y2="126.115" gradientUnits="userSpaceOnUse">
<stop stop-color="#041533"/>
<stop offset="1" stop-color="#043C73"/>
</linearGradient>
<linearGradient id="paint1_linear_153_8740" x1="688" y1="1030.03" x2="711.599" y2="1030.03" gradientUnits="userSpaceOnUse">
<stop stop-color="#041533"/>
<stop offset="1" stop-color="#043C73"/>
</linearGradient>
<clipPath id="clip0_153_8740">
<rect width="792" height="1120" fill="white"/>
</clipPath>
<clipPath id="clip1_153_8740">
<rect width="792" height="1120" fill="white"/>
</clipPath>
</defs>
</svg>
